<?xml version="1.0" standalone="no"?>
<!DOCTYPE svg PUBLIC "-//W3C//DTD SVG 20010904//EN"
 "http://www.w3.org/TR/2001/REC-SVG-20010904/DTD/svg10.dtd">
<svg version="1.0" xmlns="http://www.w3.org/2000/svg"
 width="1280.000000pt" height="948.000000pt" viewBox="0 0 1280.000000 948.000000"
 preserveAspectRatio="xMidYMid meet">

<g transform="translate(0.000000,948.000000) scale(0.100000,-0.100000)"
fill="#000000" stroke="none">
<path d="M0 4740 l0 -4740 6400 0 6400 0 0 4740 0 4740 -6400 0 -6400 0 0
-4740z m5116 2735 c9 -23 -43 -118 -91 -169 -55 -57 -145 -180 -168 -229 -24
-54 -24 -275 1 -330 l17 -38 28 78 c62 170 148 323 182 323 14 0 10 -27 -5
-40 -8 -7 -41 -59 -60 -95 -9 -16 -21 -39 -27 -50 -22 -39 -54 -126 -64 -173
-10 -48 -20 -133 -12 -97 3 11 13 28 23 37 10 9 30 42 44 72 14 30 31 58 36
61 6 3 10 28 10 54 0 35 5 53 20 66 22 20 50 71 50 91 0 7 9 18 20 24 11 6 20
20 20 31 0 12 12 27 31 37 18 9 49 34 71 55 21 20 42 38 46 38 4 1 17 3 30 4
13 1 37 19 53 38 16 20 48 55 70 78 22 23 38 44 35 46 -3 3 -26 -9 -51 -26
-25 -17 -50 -31 -56 -31 -5 0 -9 -4 -9 -9 0 -10 -30 -24 -37 -17 -2 2 10 20
26 39 33 37 131 83 156 73 31 -11 12 -42 -89 -145 -228 -233 -229 -234 -301
-416 -34 -86 -42 -126 -55 -258 -19 -198 0 -298 83 -424 44 -65 201 -243 215
-243 4 0 7 96 7 213 0 197 2 216 23 265 12 29 22 61 22 70 0 22 68 192 85 212
7 8 22 35 34 60 44 94 106 185 126 185 13 0 21 -8 23 -22 3 -22 -65 -256 -92
-318 -8 -16 -26 -70 -40 -120 -36 -125 -37 -275 0 -470 42 -228 39 -221 117
-297 38 -38 75 -68 81 -68 6 0 55 -25 108 -55 53 -30 110 -58 127 -61 17 -4
34 -11 37 -15 3 -5 14 -9 24 -9 17 0 18 10 17 143 -3 223 23 342 73 342 l25 0
5 -145 c6 -164 41 -351 72 -386 11 -12 43 -26 75 -34 57 -12 57 -12 79 15 12
15 27 46 34 69 7 22 22 63 34 90 18 42 21 68 20 175 0 69 -8 169 -16 221 -25
141 -31 232 -23 326 8 94 27 131 62 120 18 -6 21 -18 28 -119 4 -69 14 -133
26 -167 87 -244 87 -240 92 -449 4 -169 2 -203 -14 -262 -23 -84 -24 -107 -3
-161 30 -77 35 -80 188 -86 94 -3 140 -1 149 7 8 6 25 39 38 72 13 34 43 83
66 109 51 57 100 156 109 219 3 25 15 75 26 111 13 39 24 114 29 185 13 195
40 382 68 475 12 42 21 56 38 58 32 5 37 -23 38 -198 0 -85 4 -234 8 -330 7
-153 6 -186 -11 -265 -10 -49 -17 -95 -15 -102 14 -37 68 48 102 160 11 38 26
121 32 185 6 64 16 123 21 130 15 17 36 15 42 -5 9 -33 26 -177 29 -246 l2
-68 40 56 c84 119 125 169 131 162 13 -13 -21 -91 -56 -132 -47 -54 -52 -85
-15 -85 20 0 25 5 25 25 0 17 5 25 18 25 23 0 53 36 46 55 -5 11 3 19 24 27
17 7 33 20 36 31 3 12 12 17 24 15 27 -4 169 101 177 131 6 25 42 60 62 61 6
0 14 9 18 19 3 10 19 24 36 31 36 16 44 27 29 45 -8 10 -7 22 4 49 15 35 36
49 36 24 1 -16 29 33 30 50 0 7 -4 10 -10 7 -13 -8 -13 1 1 50 10 34 13 37 20
20 7 -19 8 -19 8 3 1 12 -3 22 -9 22 -5 0 -10 23 -10 50 0 51 6 59 29 38 11
-11 12 -10 5 2 -12 21 -16 130 -4 130 15 0 11 57 -10 140 -22 88 -23 84 -24
-125 -1 -149 -3 -166 -31 -250 -33 -101 -90 -206 -116 -212 -10 -3 -22 -17
-27 -32 -25 -69 -143 -181 -177 -167 -8 3 -17 21 -21 40 -3 20 -10 36 -15 36
-11 0 -41 -68 -43 -95 -1 -13 -9 -21 -23 -23 -35 -5 -30 36 11 95 92 134 154
311 136 388 -5 22 -10 59 -10 83 0 26 -12 71 -30 112 -16 38 -30 72 -30 76 0
18 -73 113 -120 159 -47 44 -82 65 -222 136 -21 11 -45 31 -54 45 -15 22 -15
27 -2 40 14 14 22 13 76 -10 34 -14 75 -26 92 -26 47 0 154 -54 218 -109 64
-56 83 -63 74 -28 -15 60 -113 196 -263 364 -48 54 -109 153 -109 177 0 28 33
27 64 -2 17 -16 76 -64 131 -107 55 -44 126 -103 158 -133 64 -62 74 -52 22
23 -117 168 -137 208 -120 235 12 19 25 10 118 -82 117 -117 182 -215 206
-311 20 -81 31 -72 31 23 0 93 26 136 59 97 17 -22 35 -116 36 -188 0 -78 11
-81 50 -11 23 40 27 63 32 164 6 118 15 145 44 133 8 -3 27 -45 43 -93 23 -72
28 -98 22 -138 -13 -95 -48 -173 -103 -236 -29 -32 -53 -64 -53 -71 0 -7 7
-44 15 -82 34 -160 9 -344 -68 -505 -25 -52 -57 -111 -72 -130 -14 -19 -39
-56 -55 -82 -27 -43 -86 -92 -166 -136 -25 -14 -173 -159 -219 -216 -76 -93
-279 -276 -308 -276 -4 0 -26 -14 -50 -31 -47 -34 -97 -102 -97 -132 0 -18 3
-17 26 9 58 66 67 74 79 74 7 0 15 9 18 20 3 13 31 32 79 54 80 37 216 129
225 152 3 8 19 14 39 14 28 0 36 -5 44 -26 15 -40 12 -176 -4 -200 -8 -11 -18
-38 -22 -59 -18 -97 -98 -215 -126 -187 -10 10 -10 16 0 30 7 9 16 27 22 40 5
12 17 22 27 22 14 0 15 2 5 9 -10 6 -8 14 11 37 13 16 22 35 19 42 -5 15 28
82 40 82 12 0 9 28 -4 50 -9 14 -10 23 -3 28 6 4 10 27 10 52 0 33 -4 45 -16
48 -20 4 -69 -44 -81 -80 -9 -26 -38 -40 -38 -18 0 5 -26 -4 -57 -22 -32 -17
-71 -39 -88 -48 -67 -36 -76 -45 -91 -99 -9 -31 -31 -69 -51 -91 l-34 -39 41
-86 c32 -65 46 -85 59 -81 54 15 65 20 82 37 10 10 26 19 35 19 23 0 54 -19
53 -33 -1 -24 -62 -60 -117 -69 -30 -5 -58 -11 -62 -13 -4 -3 -11 -39 -15 -82
-4 -42 -11 -87 -16 -99 -7 -20 -2 -26 44 -52 29 -17 83 -59 121 -95 69 -64 70
-65 72 -120 1 -31 5 -61 9 -66 8 -14 -26 -92 -48 -110 -10 -7 -17 -20 -17 -28
0 -8 -7 -27 -15 -43 -15 -30 -23 -33 -175 -75 -30 -8 -61 -19 -69 -24 -22 -14
-6 -38 41 -59 58 -27 187 -155 234 -234 36 -60 65 -100 126 -169 15 -17 31
-48 34 -68 4 -20 13 -45 20 -55 9 -14 10 -24 3 -38 -7 -14 -6 -31 5 -61 8 -23
18 -73 21 -112 8 -84 7 -359 -1 -432 -6 -49 -5 -53 14 -53 12 0 24 -5 27 -10
11 -18 -15 -40 -46 -40 -19 0 -32 -7 -40 -22 -7 -13 -20 -29 -30 -35 -15 -12
-18 -40 -21 -280 -2 -148 -8 -276 -12 -286 -19 -40 -35 -42 -496 -45 -245 -1
-506 -3 -580 -4 -169 -2 -767 11 -797 18 -13 2 -30 18 -39 36 -14 27 -15 44
-5 137 6 58 11 188 11 287 l0 181 -27 28 c-16 15 -50 41 -78 58 -56 36 -77 67
-101 152 -25 84 -30 265 -9 343 8 34 15 91 14 129 -2 89 6 109 82 201 6 7 24
15 40 19 19 4 50 30 96 82 37 42 89 99 114 126 47 50 209 250 234 289 8 12 29
64 48 116 30 84 35 112 42 240 5 80 8 157 7 172 -1 21 4 29 22 34 18 4 22 11
18 30 -2 13 -10 24 -17 24 -8 0 -24 17 -37 38 l-23 37 -3 -28 c-4 -32 -16 -34
-60 -7 -24 15 -50 20 -104 20 -119 0 -209 34 -303 112 -151 128 -249 288 -261
430 -5 63 -4 82 10 103 30 45 57 38 308 -79 43 -20 85 -36 94 -36 23 0 158
-66 174 -85 7 -8 17 -15 22 -15 5 0 28 -16 51 -35 22 -19 46 -35 53 -35 6 0
17 -7 24 -16 17 -20 76 -45 118 -49 37 -3 37 -3 18 33 -25 47 -88 100 -135
112 -140 37 -484 194 -545 249 -23 21 -66 56 -96 79 -30 23 -59 45 -65 50 -5
4 -54 41 -108 81 -54 41 -106 83 -115 95 -9 12 -37 39 -62 60 -111 99 -297
360 -374 526 -59 128 -93 168 -223 266 -109 82 -171 143 -198 194 -7 14 -22
63 -34 110 -43 169 -34 351 16 358 26 4 26 3 48 -148 15 -104 48 -194 95 -261
29 -40 40 -36 40 14 0 88 66 248 130 317 24 26 32 29 49 21 27 -15 45 -6 75
40 15 21 44 50 65 64 22 13 42 32 46 42 3 10 24 32 46 48 23 17 53 42 68 56
30 30 59 36 67 14z m174 -204 c0 -7 -47 -49 -108 -96 -7 -5 -22 -18 -33 -27
-23 -21 -29 -22 -29 -5 0 15 35 50 103 101 49 36 67 44 67 27z m2310 -2151 c0
-11 -9 -25 -20 -32 -11 -7 -20 -21 -20 -31 0 -27 -19 -57 -35 -57 -7 0 -16 -9
-20 -19 -7 -23 -72 -48 -86 -34 -6 6 -7 32 -3 61 6 51 8 52 73 91 75 45 111
52 111 21z"/>
<path d="M5033 7417 c-21 -17 -50 -44 -65 -60 -15 -15 -32 -27 -38 -27 -5 0
-10 -5 -10 -10 0 -7 7 -7 21 1 12 6 33 12 46 14 25 2 55 33 88 88 22 36 5 34
-42 -6z"/>
<path d="M7660 7320 c40 -35 56 -39 38 -10 -7 11 -26 24 -43 30 l-30 10 35
-30z"/>
<path d="M7904 7301 c21 -23 26 -26 26 -11 0 5 -10 15 -22 21 -23 12 -23 12
-4 -10z"/>
<path d="M4907 7259 c-9 -5 -21 -8 -26 -5 -5 3 -11 0 -14 -7 -8 -21 37 -18 51
3 14 23 13 23 -11 9z"/>
<path d="M7760 7240 c0 -5 8 -14 19 -19 25 -14 89 -111 93 -142 2 -14 18 -48
36 -76 43 -67 102 -207 108 -258 2 -22 7 -61 10 -87 5 -38 2 -55 -14 -83 -15
-24 -19 -44 -15 -68 3 -20 1 -37 -6 -41 -7 -5 -11 -47 -11 -116 0 -62 -4 -111
-10 -115 -19 -12 -11 -51 13 -62 32 -15 39 -8 61 62 27 87 27 87 16 80 -23
-14 -8 50 21 92 22 32 36 69 46 122 8 42 25 94 37 117 17 30 20 44 12 57 -8
12 -6 24 7 46 22 38 22 43 -7 35 -33 -8 -41 11 -16 36 11 11 23 33 26 49 5 26
4 28 -18 24 -22 -4 -26 3 -61 99 -40 112 -76 189 -92 200 -22 17 -24 6 -4 -32
17 -31 19 -49 13 -78 -4 -20 -6 -45 -5 -54 3 -21 -27 -25 -35 -4 -3 7 -21 22
-41 32 -25 14 -42 34 -59 72 -14 28 -28 52 -33 52 -4 0 -17 8 -29 18 -55 46
-62 51 -62 42z"/>
<path d="M4801 7165 c-25 -30 -61 -123 -61 -156 0 -27 -5 -39 -17 -42 -10 -3
-3 -5 15 -6 31 -1 32 1 32 37 0 40 33 122 49 122 5 0 13 13 19 28 8 24 7 28
-10 28 -10 0 -23 -5 -27 -11z"/>
<path d="M4681 7104 c-12 -15 -21 -32 -21 -38 0 -6 6 -2 12 9 6 11 18 28 26
38 8 9 12 17 9 17 -3 0 -15 -12 -26 -26z"/>
<path d="M7825 7110 c3 -5 8 -10 11 -10 2 0 4 5 4 10 0 6 -5 10 -11 10 -5 0
-7 -4 -4 -10z"/>
<path d="M8385 7084 c-4 -16 -11 -42 -16 -58 -7 -23 -5 -31 8 -42 26 -18 33
-8 33 49 0 64 -15 95 -25 51z"/>
<path d="M8211 7048 c-1 -10 -5 -18 -9 -18 -5 0 -9 -21 -9 -47 -1 -44 -1 -45
6 -16 5 18 13 39 18 45 6 8 7 22 2 33 -6 17 -8 17 -8 3z"/>
<path d="M4642 7025 c-15 -33 -15 -35 3 -35 10 0 15 10 15 30 0 37 -3 37 -18
5z"/>
<path d="M4612 6920 c0 -19 2 -27 5 -17 2 9 2 25 0 35 -3 9 -5 1 -5 -18z"/>
<path d="M7730 6933 c0 -14 15 -30 37 -41 17 -9 22 -9 27 3 3 8 1 15 -5 15 -6
0 -17 7 -25 15 -16 16 -34 20 -34 8z"/>
<path d="M4400 6913 c0 -13 5 -23 10 -23 13 0 13 11 0 30 -8 12 -10 11 -10 -7z"/>
<path d="M8241 6834 c0 -11 3 -14 6 -6 3 7 2 16 -1 19 -3 4 -6 -2 -5 -13z"/>
<path d="M5596 6798 c-27 -41 -133 -272 -138 -300 -4 -23 -2 -25 16 -18 17 6
21 16 21 51 0 39 3 44 24 47 19 3 22 8 18 29 -3 16 2 32 13 43 9 9 19 25 23
36 3 10 15 43 26 73 22 60 21 76 -3 39z"/>
<path d="M4761 6747 c-10 -13 -11 -20 -2 -31 17 -20 3 -46 -25 -46 -31 0 -32
-27 -1 -39 12 -5 43 -27 69 -50 52 -46 65 -52 44 -18 -8 12 -17 46 -21 75 -4
30 -15 60 -25 70 -10 9 -19 26 -21 36 -4 18 -5 18 -18 3z"/>
<path d="M4593 6733 c-20 -7 -15 -33 5 -33 10 0 28 -7 40 -16 25 -17 26 -15
11 20 -12 25 -34 36 -56 29z"/>
<path d="M7958 6733 c-16 -4 -36 -48 -26 -58 2 -2 14 -2 26 2 16 4 22 13 22
34 0 16 -1 28 -2 28 -2 -1 -11 -3 -20 -6z"/>
<path d="M8197 6630 c-26 -77 -54 -211 -61 -291 -2 -31 -14 -75 -25 -97 -26
-51 -27 -62 -3 -31 54 69 93 187 106 319 6 56 -7 129 -17 100z"/>
<path d="M4905 6540 c-4 -17 -5 -34 -2 -36 2 -3 7 10 11 27 8 42 0 50 -9 9z"/>
<path d="M4850 6510 c0 -5 5 -10 11 -10 5 0 7 5 4 10 -3 6 -8 10 -11 10 -2 0
-4 -4 -4 -10z"/>
<path d="M4886 6472 c-4 -4 -12 -8 -17 -8 -5 -1 -11 -2 -14 -3 -3 0 -1 -10 5
-20 7 -14 6 -21 -3 -24 -6 -3 -2 -6 11 -6 20 -1 23 -6 22 -33 -3 -52 -1 -58
19 -58 19 0 31 -25 31 -68 0 -13 4 -21 9 -18 10 7 39 -26 76 -85 21 -34 33
-45 47 -41 13 3 18 -1 18 -17 0 -11 10 -26 24 -33 13 -7 45 -42 72 -78 27 -35
63 -74 81 -85 18 -11 32 -25 33 -31 0 -14 50 -57 57 -50 3 3 -11 24 -31 46
-20 22 -36 45 -36 51 0 6 -17 28 -37 48 -53 52 -85 99 -77 113 4 7 3 8 -5 4
-6 -4 -25 7 -44 26 -18 18 -52 49 -76 67 -24 20 -45 46 -48 62 -3 15 -20 42
-39 60 -29 28 -34 40 -34 80 0 26 -4 51 -10 54 -5 3 -10 15 -10 25 0 21 -13
33 -24 22z"/>
<path d="M5425 6413 c-17 -43 -20 -72 -20 -256 0 -193 1 -210 19 -222 32 -24
35 -8 10 60 -29 81 -34 204 -8 226 11 9 14 22 10 44 -4 17 -1 45 4 62 6 17 10
54 8 82 l-3 51 -20 -47z"/>
<path d="M8080 6295 c0 -8 2 -15 4 -15 2 0 6 7 10 15 3 8 1 15 -4 15 -6 0 -10
-7 -10 -15z"/>
<path d="M7306 6220 c-9 -43 -21 -152 -26 -242 -4 -90 -15 -189 -24 -220 -9
-32 -22 -88 -30 -125 -8 -38 -17 -76 -21 -86 -5 -13 -3 -16 8 -11 10 3 18 26
22 65 6 51 10 60 31 65 18 5 24 13 24 33 0 31 16 51 41 51 25 0 28 20 18 96
-6 38 -12 154 -15 259 -3 104 -6 191 -8 192 -1 2 -10 -33 -20 -77z"/>
<path d="M6483 6125 c3 -55 10 -121 15 -146 6 -25 12 -110 14 -190 3 -166 -6
-206 -91 -379 -4 -8 -22 -21 -39 -29 -18 -8 -32 -18 -32 -23 0 -17 41 -7 84
22 66 45 96 85 96 128 0 21 11 56 25 80 21 37 24 54 21 108 -2 35 -8 70 -14
77 -17 21 -24 87 -11 103 6 7 15 11 20 8 17 -10 9 15 -9 28 -21 15 -44 53 -36
60 6 7 -32 237 -41 246 -4 4 -5 -38 -2 -93z"/>
<path d="M7926 6139 c-3 -18 -4 -34 -2 -36 2 -3 7 10 11 27 4 17 5 34 2 36 -2
3 -7 -10 -11 -27z"/>
<path d="M7527 5903 c3 -16 0 -59 -5 -96 -6 -49 -6 -65 2 -57 14 14 22 180 9
180 -5 0 -8 -12 -6 -27z"/>
<path d="M6108 5840 c-9 -33 -12 -209 -4 -217 3 -4 6 3 6 15 0 11 8 25 17 30
15 9 15 17 5 78 -7 38 -13 80 -15 94 l-3 25 -6 -25z"/>
<path d="M7802 5798 c-16 -16 -15 -28 3 -28 8 0 15 9 15 20 0 23 -2 24 -18 8z"/>
<path d="M7479 5631 c-16 -37 -16 -38 2 -34 14 4 19 15 19 39 0 19 -1 34 -2
34 -2 0 -10 -18 -19 -39z"/>
<path d="M7631 5646 c-14 -14 -22 -28 -19 -31 9 -9 51 31 47 44 -3 8 -13 3
-28 -13z"/>
<path d="M5678 5627 c-27 -6 -38 -14 -38 -27 0 -21 53 -77 68 -72 5 1 17 -4
25 -13 9 -8 22 -15 30 -15 7 0 20 -11 27 -25 7 -14 20 -25 27 -25 8 0 25 -7
38 -16 13 -8 47 -22 75 -29 29 -8 60 -21 70 -30 10 -9 34 -19 54 -22 35 -5 36
-4 36 24 0 39 -16 57 -72 77 -25 9 -52 24 -58 32 -7 7 -16 14 -21 14 -24 0
-183 86 -202 110 -20 24 -25 26 -59 17z"/>
<path d="M6098 5572 c-3 -9 -1 -26 3 -37 6 -15 8 -11 8 18 1 40 -4 48 -11 19z"/>
<path d="M7184 5496 c-8 -34 2 -45 23 -23 16 16 16 18 1 34 -16 15 -17 14 -24
-11z"/>
<path d="M5507 5303 c10 -67 21 -99 47 -137 18 -28 45 -72 60 -98 27 -46 49
-69 110 -113 15 -11 34 -32 41 -46 10 -19 22 -26 41 -26 14 0 30 -6 34 -13 6
-9 14 -8 37 3 25 13 29 20 25 46 -5 34 16 43 38 16 7 -8 19 -15 26 -15 8 0 20
-11 26 -25 21 -47 64 -18 60 42 -2 31 0 34 20 31 16 -2 26 -13 33 -35 6 -17
18 -40 27 -50 9 -10 18 -29 21 -43 3 -21 5 -19 6 8 1 31 3 33 33 30 36 -3 52
-34 26 -49 -24 -13 -11 -66 18 -73 15 -4 24 -14 24 -25 0 -10 12 -26 26 -36
22 -14 25 -23 23 -59 -2 -23 0 -46 2 -51 3 -6 6 -35 7 -65 3 -71 8 -87 32 -93
15 -4 20 -14 21 -39 l1 -33 10 38 c7 27 15 37 27 35 9 -2 16 -13 16 -25 0 -12
3 -25 8 -29 11 -12 8 -42 -5 -51 -14 -8 -58 -68 -58 -78 0 -3 6 -5 14 -5 8 0
17 -6 19 -12 4 -10 6 -10 6 0 2 26 21 0 21 -29 0 -27 3 -29 40 -30 22 -1 44
-2 48 -3 18 -3 92 -74 92 -88 0 -26 27 -41 64 -34 29 6 35 3 41 -16 6 -19 8
-20 12 -6 7 26 62 37 153 31 l80 -6 0 27 c0 17 5 26 16 26 8 0 12 5 9 10 -14
22 26 8 40 -14 11 -16 22 -22 35 -19 11 3 20 9 20 14 0 5 7 9 16 9 16 0 122
46 174 76 14 8 42 21 63 30 35 16 45 36 29 60 -4 5 -27 11 -52 12 -33 1 -50 7
-62 23 -40 48 -13 76 74 75 61 -1 63 -2 66 -29 4 -30 22 -27 22 4 0 11 7 22
15 25 8 4 15 12 15 20 0 22 27 17 46 -8 16 -23 16 -23 9 7 -3 17 -11 32 -16
33 -5 2 -9 14 -9 27 0 21 -17 35 -42 35 -6 0 -5 -6 2 -15 37 -44 -42 -26 -99
22 -25 22 -54 37 -69 38 -20 0 -27 5 -27 19 0 10 -9 22 -19 26 -29 10 -28 59
0 66 29 8 23 25 -33 87 -55 63 -73 118 -51 155 24 39 62 41 77 3 29 -69 75
-73 73 -5 -2 49 -21 68 -82 82 -39 9 -55 9 -70 0 -17 -11 -23 -9 -39 7 -11 11
-23 36 -26 57 -6 31 -4 37 15 43 12 4 19 9 16 12 -2 3 -1 15 4 27 6 18 3 25
-13 36 -34 22 -87 6 -87 -26 0 -7 -13 -32 -29 -55 -16 -25 -26 -50 -23 -61 3
-13 -6 -30 -27 -51 -17 -18 -38 -41 -46 -52 -15 -20 -15 -20 -30 -1 -18 24
-20 60 -2 54 6 -3 21 3 31 13 18 17 18 19 2 25 -13 5 -26 -2 -44 -23 -36 -41
-90 -51 -120 -23 -12 12 -22 27 -22 34 0 8 -10 20 -22 28 -22 14 -22 16 -4 33
17 17 16 20 -22 58 -34 34 -43 38 -70 32 -72 -15 -104 -72 -62 -110 20 -18 26
-60 12 -81 -4 -6 -33 -19 -65 -29 -55 -17 -60 -17 -90 -1 -18 9 -51 32 -75 51
-24 19 -56 38 -70 41 -15 4 -36 15 -47 25 -11 9 -33 19 -50 21 -33 3 -75 56
-75 94 0 28 -27 44 -72 44 -37 0 -82 26 -72 42 4 6 -1 8 -15 3 -16 -5 -65 15
-185 74 -89 45 -174 81 -188 81 l-25 0 14 -87z m178 -103 c3 -5 14 -10 24 -10
31 0 122 -133 134 -198 l7 -32 -30 15 c-16 8 -36 15 -44 15 -19 0 -36 31 -36
65 0 26 -56 92 -68 80 -3 -2 -11 0 -19 6 -14 12 -18 51 -6 62 10 10 31 8 38
-3z m919 -406 c9 -3 16 -12 16 -19 0 -7 7 -15 14 -18 11 -4 13 -13 7 -34 -8
-30 -6 -44 12 -81 8 -16 8 -25 0 -33 -9 -9 -18 -4 -37 16 -24 25 -28 26 -88
20 -78 -8 -108 3 -132 49 -23 44 -14 59 47 75 23 6 49 15 57 21 17 11 80 13
104 4z m196 -48 c0 -7 -7 -19 -15 -26 -9 -8 -13 -21 -9 -35 4 -17 0 -26 -14
-34 -29 -15 -29 -16 -36 30 -5 32 -3 46 10 60 20 22 64 25 64 5z m-176 -311
c-3 -14 -2 -25 4 -25 5 0 12 -9 15 -21 3 -11 15 -23 26 -26 15 -4 21 -13 21
-34 0 -16 -5 -29 -11 -29 -6 0 -39 28 -72 62 -59 59 -60 62 -39 71 12 6 22 14
22 19 0 4 9 8 20 8 17 0 19 -5 14 -25z m-45 -94 c19 -23 41 -41 48 -41 7 0 13
-11 13 -24 0 -15 7 -26 20 -29 16 -4 22 2 30 34 8 27 15 37 25 33 20 -8 19
-54 -1 -68 -15 -12 -10 -51 6 -41 5 3 15 -4 23 -16 12 -16 28 -21 78 -24 63
-4 89 -19 89 -51 0 -14 -128 -16 -137 -1 -3 4 -11 0 -18 -10 -13 -17 -14 -16
-25 11 -6 16 -9 35 -6 41 2 7 -13 3 -33 -8 -34 -19 -40 -19 -53 -6 -9 8 -19
30 -23 47 -3 18 -10 32 -15 32 -4 0 -16 22 -26 50 -16 44 -44 76 -44 49 0 -6
-4 -7 -10 -4 -14 9 -12 82 2 108 12 21 13 21 18 -10 3 -17 20 -50 39 -72z
m554 -22 c13 -52 13 -82 0 -86 -20 -7 -46 55 -38 94 8 42 26 39 38 -8z m96
-30 c17 -22 21 -33 13 -41 -17 -17 -62 17 -62 47 0 33 20 31 49 -6z m-159 -14
c0 -19 4 -35 9 -35 12 0 43 -79 36 -91 -13 -20 -36 -7 -55 31 -19 38 -27 110
-13 123 15 15 23 5 23 -28z m-550 -25 c0 -20 -5 -30 -15 -30 -16 0 -19 17 -9
44 10 26 24 18 24 -14z"/>
<path d="M6463 4740 c-42 -25 -43 -54 -4 -70 24 -9 38 -9 68 0 50 17 65 29 61
54 -2 16 -9 20 -30 18 -14 -2 -29 2 -33 7 -9 16 -26 13 -62 -9z"/>
<path d="M7236 4612 c-8 -13 19 -40 47 -47 35 -9 37 16 2 39 -27 18 -41 20
-49 8z"/>
<path d="M7350 4527 c0 -10 8 -17 18 -17 9 0 13 4 7 8 -5 4 -13 11 -17 16 -5
5 -8 2 -8 -7z"/>
<path d="M7536 4397 c3 -10 9 -15 12 -12 3 3 0 11 -7 18 -10 9 -11 8 -5 -6z"/>
<path d="M7297 4343 c-34 -5 -31 -24 6 -37 21 -8 31 -6 43 6 17 17 11 39 -9
37 -7 -1 -25 -4 -40 -6z"/>
<path d="M7528 4342 c-10 -2 -18 -8 -18 -13 0 -13 27 -11 35 2 9 13 4 16 -17
11z"/>
<path d="M7318 4137 c-32 -34 -33 -40 -14 -56 11 -10 21 -9 43 2 15 7 48 15
73 16 99 5 81 65 -20 67 -49 2 -58 -1 -82 -29z"/>
<path d="M6263 4094 c1 -42 5 -54 17 -54 22 0 24 -46 5 -100 -18 -51 -18 -51
-2 -47 7 1 12 -9 13 -23 2 -34 18 -71 43 -97 12 -13 24 -43 28 -70 3 -27 13
-53 21 -59 11 -8 13 -22 9 -50 -4 -21 -4 -33 -1 -26 8 18 34 -4 34 -29 0 -13
10 -20 36 -25 24 -4 38 -13 41 -25 8 -28 20 -23 32 11 8 25 7 30 -5 30 -21 0
-27 22 -15 53 7 17 7 27 1 27 -14 0 -12 34 2 48 9 9 9 12 0 12 -7 0 -12 10
-12 23 0 16 -3 18 -9 8 -12 -19 -33 -3 -26 20 4 11 2 19 -5 19 -14 0 -7 39 16
84 19 40 17 46 -6 16 l-19 -25 -10 28 c-6 16 -11 37 -11 48 0 12 -7 19 -20 19
-11 0 -20 6 -20 14 0 8 -7 16 -15 20 -11 4 -15 21 -15 60 0 70 -14 106 -39
106 -11 0 -24 8 -29 17 -6 9 -17 18 -25 19 -12 2 -15 -9 -14 -52z"/>
<path d="M6577 4023 c-7 -6 70 -63 85 -63 19 0 -9 39 -38 54 -40 18 -39 18
-47 9z"/>
<path d="M6420 3976 c0 -8 5 -18 10 -21 6 -3 10 1 10 9 0 8 -4 18 -10 21 -5 3
-10 -1 -10 -9z"/>
<path d="M6112 3875 c-11 -24 -10 -25 18 -25 26 0 30 -4 31 -27 1 -27 1 -27
10 5 9 29 7 36 -13 52 -30 25 -33 25 -46 -5z"/>
<path d="M6688 3825 c3 -28 8 -43 15 -38 5 3 16 -2 24 -13 10 -14 16 -16 21
-6 13 20 55 -25 49 -54 -2 -13 0 -21 4 -18 5 3 9 0 9 -5 0 -6 21 -11 50 -11
38 0 50 4 50 15 0 9 -9 15 -25 15 -29 0 -59 39 -49 64 3 9 1 16 -5 16 -6 0
-16 11 -21 25 -8 22 -12 24 -24 13 -12 -11 -12 -16 5 -34 29 -31 13 -35 -36
-8 -28 16 -47 35 -54 54 -14 41 -17 38 -13 -15z"/>
<path d="M7360 3764 c6 -14 10 -36 10 -50 0 -25 12 -51 43 -93 9 -13 17 -33
17 -44 0 -20 0 -20 -21 -1 -22 19 -22 19 -15 -6 4 -14 15 -45 26 -70 26 -66
44 -129 37 -136 -10 -10 -55 39 -61 66 -2 14 -2 7 0 -15 3 -22 7 -61 10 -87 3
-26 12 -52 20 -59 14 -11 20 -89 8 -89 -4 0 -12 8 -19 17 -11 15 -13 15 -24
-5 -11 -21 -18 -22 -157 -22 -129 0 -145 2 -151 18 -3 9 -19 29 -35 45 -23 21
-29 34 -26 59 4 41 28 50 28 11 0 -15 5 -35 10 -43 7 -11 10 -5 10 23 0 26 5
40 17 44 9 4 18 2 20 -4 4 -11 43 -6 43 6 0 4 -7 16 -15 27 -14 19 -14 19 -15
0 0 -27 -17 -9 -26 28 -6 25 -5 28 11 22 13 -5 15 -3 8 6 -6 7 -12 19 -14 25
-3 10 -10 10 -31 -2 -24 -12 -32 -12 -55 1 l-28 14 -3 -38 c-4 -54 -10 -68
-24 -54 -22 22 -27 12 -12 -23 18 -43 18 -49 -1 -41 -8 3 -15 1 -15 -5 0 -5 7
-12 15 -15 8 -4 15 -12 15 -19 0 -8 8 -11 18 -8 13 3 25 -4 36 -22 17 -25 17
-27 -1 -40 -10 -7 -21 -11 -25 -9 -5 3 -8 0 -8 -5 0 -6 -16 -11 -35 -11 -31 0
-35 3 -35 25 0 14 -5 45 -12 70 -10 39 -10 48 2 55 11 7 9 11 -12 19 -27 10
-35 29 -46 116 -5 31 -12 49 -19 48 -7 -2 -26 21 -43 50 -27 47 -30 49 -30 24
0 -16 -4 -26 -10 -22 -5 3 -10 21 -10 40 0 19 -5 37 -10 40 -6 3 -7 17 -4 29
4 18 1 25 -16 29 -20 5 -22 3 -17 -22 7 -35 0 -43 -24 -30 -13 7 -19 6 -19 -2
0 -6 -6 -9 -14 -6 -10 4 -17 -7 -25 -38 -6 -24 -15 -47 -21 -50 -5 -3 -10 -17
-10 -30 0 -13 -11 -36 -24 -52 -31 -38 -45 -147 -20 -157 13 -5 15 -15 10 -49
l-6 -42 20 24 c11 13 20 29 20 37 0 21 40 17 41 -3 0 -15 2 -15 9 2 5 11 6 41
3 66 -3 29 -1 49 6 53 6 4 11 2 11 -5 0 -7 10 -33 22 -58 l22 -45 -22 -14
c-12 -8 -22 -23 -22 -33 0 -11 -7 -19 -15 -19 -9 0 -18 -12 -22 -30 l-6 -31
-81 3 c-80 3 -81 3 -84 31 -2 15 -9 27 -18 27 -8 0 -14 8 -14 18 0 13 -2 14
-9 3 -14 -22 -23 4 -15 45 5 27 4 35 -5 30 -6 -4 -11 -14 -11 -22 0 -8 -7 -14
-16 -14 -13 0 -15 8 -12 38 3 20 0 44 -5 54 -8 11 -8 31 0 61 8 39 8 44 -5 39
-12 -4 -14 2 -9 39 5 43 5 44 -9 17 -26 -50 -45 -29 -24 27 6 15 6 24 1 20 -5
-3 -13 25 -16 61 -4 37 -11 61 -15 54 -10 -17 -29 -4 -42 28 -11 26 -12 26
-15 5 -5 -29 -21 -30 -32 -2 -7 20 -8 20 -20 -10 -8 -17 -13 -43 -13 -57 0
-14 -5 -23 -12 -21 -7 3 -10 29 -7 78 l3 74 -21 -19 c-16 -15 -18 -22 -10 -33
7 -8 9 -31 6 -58 -4 -27 -3 -45 3 -45 13 0 13 -36 0 -60 -6 -11 -23 -26 -38
-34 -15 -9 -21 -15 -13 -16 9 0 11 -7 8 -22 -10 -39 38 27 53 73 13 39 30 52
30 24 0 -9 6 -12 16 -8 14 5 16 2 10 -23 -4 -16 -7 -40 -7 -53 1 -13 -4 -30
-10 -38 -9 -11 -8 -12 5 -7 19 7 20 0 5 -27 -10 -19 -9 -19 10 -9 12 6 21 16
21 22 0 7 4 7 13 0 16 -14 20 -67 7 -92 -11 -21 -30 -27 -30 -10 0 13 -48 59
-54 52 -3 -3 -6 4 -6 15 0 19 -3 20 -29 10 -27 -10 -51 -57 -30 -57 5 0 9 -12
9 -27 0 -25 1 -25 18 -10 30 28 45 21 37 -15 -4 -18 -12 -39 -17 -45 -13 -16
4 -17 19 -2 18 18 23 -4 11 -49 -10 -40 -11 -41 -67 -52 -31 -5 -70 -15 -87
-20 -41 -13 -41 -13 -47 11 -3 12 -10 18 -16 14 -14 -8 -25 20 -15 36 4 7 8
44 9 83 1 39 5 80 10 91 l8 20 -16 -20 c-9 -11 -17 -28 -17 -37 0 -10 -7 -18
-15 -18 -19 0 -19 8 0 54 8 20 12 36 8 35 -19 -3 -22 3 -12 27 12 33 5 42 -16
20 -9 -9 -30 -16 -46 -16 -16 0 -29 -4 -29 -10 0 -5 -7 -10 -15 -10 -8 0 -15
-4 -15 -10 0 -5 7 -10 15 -10 20 0 19 -26 -1 -34 -38 -15 -66 -6 -77 24 -12
31 -34 40 -42 18 -2 -7 -6 -34 -10 -60 -6 -45 -5 -49 20 -60 26 -12 27 -14 20
-68 -15 -117 -12 -142 23 -194 17 -27 32 -57 32 -67 0 -10 5 -21 10 -24 6 -4
10 8 10 30 0 55 15 75 55 75 25 0 35 5 40 21 7 20 12 21 68 14 39 -4 65 -12
74 -23 11 -15 12 -13 13 16 0 29 5 35 38 49 65 27 104 28 144 2 26 -17 38 -32
38 -49 2 -24 2 -23 11 5 5 16 16 36 26 42 18 14 160 16 248 5 48 -7 50 -8 53
-41 2 -20 -2 -38 -10 -43 -9 -7 -8 -8 7 -6 13 2 22 13 25 33 5 30 6 30 90 38
136 13 500 19 500 9 0 -15 -83 -22 -279 -22 -102 0 -203 -5 -224 -11 -28 -8
-42 -7 -53 2 -12 10 -14 5 -14 -30 0 -41 0 -41 -37 -42 -78 -1 -238 -11 -242
-15 -2 -2 25 -4 62 -4 92 0 97 -3 97 -61 l0 -49 -77 0 c-43 0 -84 4 -92 9 -9
6 -12 23 -10 54 4 45 4 46 -31 53 -30 6 -114 12 -215 16 -16 0 -46 -1 -65 -2
-19 -2 -57 -1 -84 0 -70 4 -77 -9 -70 -129 3 -53 9 -99 13 -103 3 -3 167 -8
364 -11 282 -3 361 -1 376 9 10 7 49 29 87 48 67 35 69 35 163 29 63 -4 117
-14 156 -28 33 -13 94 -29 135 -36 l75 -14 -55 -5 c-31 -4 37 -8 160 -11 180
-4 221 -2 250 11 l35 15 3 80 c3 73 1 82 -20 99 l-23 18 -5 -53 c-3 -29 -11
-54 -17 -57 -16 -5 -17 0 -17 118 -1 87 -3 95 -21 97 -11 2 -14 0 -7 -3 13 -6
18 -260 5 -267 -5 -2 -75 -1 -158 2 l-150 6 0 125 0 125 55 6 c30 3 42 7 25 8
-42 2 -75 12 -75 22 0 5 65 9 145 9 122 0 145 2 153 16 8 14 14 15 44 5 19 -6
44 -19 54 -29 22 -19 60 -42 70 -42 14 0 -17 165 -35 183 -6 6 -11 25 -11 41
0 17 -14 58 -32 91 -23 45 -31 72 -31 109 1 37 -7 62 -32 107 -49 85 -91 145
-121 168 -35 28 -46 26 -34 -5z m-770 -389 c0 -21 -22 -65 -32 -65 -18 0 -19
29 -3 54 19 29 35 34 35 11z m166 -30 c12 -12 13 -22 5 -52 -6 -21 -10 -49
-10 -63 l1 -25 8 25 8 25 7 -22 c8 -25 25 -31 25 -10 0 14 36 57 48 57 4 0 12
-4 19 -8 15 -9 6 -82 -10 -82 -6 0 -7 17 -3 43 l7 42 -21 -37 c-11 -21 -20
-44 -20 -52 0 -20 -22 -25 -38 -9 -8 7 -18 10 -24 7 -6 -4 -14 -1 -18 5 -5 8
-12 4 -24 -13 -9 -14 -21 -26 -26 -26 -19 0 -10 48 13 77 25 29 53 98 37 88
-6 -4 -10 5 -10 19 0 30 5 32 26 11z m-946 -22 c-1 -14 -49 -43 -81 -50 -48
-9 -32 18 22 38 52 20 59 21 59 12z m30 -31 c0 -10 -7 -27 -15 -38 -17 -22
-20 -38 -5 -29 6 3 10 0 10 -7 -1 -18 -25 -48 -38 -48 -14 0 -25 36 -16 51 4
8 0 9 -15 4 -30 -9 -26 5 15 48 38 40 64 48 64 19z m1262 -266 c4 -6 8 -37 8
-68 0 -45 -5 -63 -20 -78 -19 -19 -28 -20 -133 -14 -63 4 -115 12 -119 18 -11
16 -10 110 2 140 l9 25 123 -6 c72 -3 126 -11 130 -17z m-752 -177 c69 -7 131
-15 139 -19 25 -13 -93 -20 -184 -10 -49 5 -116 10 -147 10 -54 0 -76 10 -64
28 6 10 78 7 256 -9z m224 -18 c19 -7 19 -8 -2 -13 -27 -8 -64 1 -56 13 6 11
31 11 58 0z"/>
<path d="M6902 2970 c0 -19 2 -27 5 -17 2 9 2 25 0 35 -3 9 -5 1 -5 -18z"/>
<path d="M6988 2993 c-18 -3 -28 -11 -28 -21 0 -9 -3 -27 -6 -39 -5 -20 -2
-23 20 -23 23 0 26 4 26 35 0 35 22 50 34 23 3 -7 5 -4 3 6 -2 22 -10 25 -49
19z"/>
<path d="M6642 3750 c0 -14 2 -19 5 -12 2 6 2 18 0 25 -3 6 -5 1 -5 -13z"/>
<path d="M6580 3716 c0 -9 5 -16 10 -16 6 0 10 4 10 9 0 6 -4 13 -10 16 -5 3
-10 -1 -10 -9z"/>
<path d="M5901 3656 c-8 -9 -11 -19 -7 -23 9 -9 29 13 24 27 -2 8 -8 7 -17 -4z"/>
<path d="M6873 3643 c9 -11 17 -28 18 -39 0 -10 3 -13 6 -6 2 6 11 12 18 12
14 0 28 27 17 34 -4 2 -23 7 -42 11 -34 7 -35 7 -17 -12z"/>
<path d="M6040 3590 c-6 -11 -8 -20 -6 -20 3 0 10 9 16 20 6 11 8 20 6 20 -3
0 -10 -9 -16 -20z"/>
<path d="M6562 3565 c-6 -14 -7 -25 -2 -25 9 0 25 39 18 46 -3 2 -10 -7 -16
-21z"/>
<path d="M5840 3568 c0 -6 -7 -20 -17 -30 -16 -18 -8 -25 13 -10 14 9 25 52
13 52 -5 0 -9 -5 -9 -12z"/>
<path d="M7106 3551 c-22 -23 -24 -30 -12 -34 8 -3 20 -27 28 -52 14 -51 31
-60 36 -20 2 17 -1 25 -11 25 -14 0 -27 20 -27 41 0 15 28 10 38 -7 8 -14 10
-12 16 11 5 19 2 33 -10 46 -22 25 -25 24 -58 -10z"/>
<path d="M5815 3499 c-10 -15 3 -25 16 -12 7 7 7 13 1 17 -6 3 -14 1 -17 -5z"/>
<path d="M6064 3458 c-10 -21 -11 -28 -3 -20 7 6 21 12 31 12 11 0 18 7 18 20
0 31 -28 24 -46 -12z"/>
<path d="M6370 3480 c0 -5 5 -10 11 -10 5 0 7 5 4 10 -3 6 -8 10 -11 10 -2 0
-4 -4 -4 -10z"/>
<path d="M5735 3450 c3 -5 12 -7 20 -3 21 7 19 13 -6 13 -11 0 -18 -4 -14 -10z"/>
<path d="M6443 3443 c-7 -3 -13 -12 -13 -21 0 -15 2 -15 17 1 18 18 16 27 -4
20z"/>
<path d="M7623 3429 l-20 -21 21 -41 c31 -61 47 -71 62 -36 8 16 4 33 -13 67
-29 57 -26 55 -50 31z"/>
<path d="M6013 3420 c-19 -29 -17 -48 3 -28 9 8 14 23 12 32 -3 14 -5 14 -15
-4z"/>
<path d="M6347 3391 c-4 -19 -5 -36 -2 -39 10 -11 16 7 13 40 l-3 33 -8 -34z"/>
<path d="M6475 3412 c-6 -4 -8 -20 -4 -37 4 -16 8 -28 9 -25 2 6 8 70 6 70 0
0 -6 -4 -11 -8z"/>
<path d="M7280 2943 c0 -20 5 -23 41 -23 33 0 40 3 37 17 -2 12 -16 20 -41 24
-34 5 -37 4 -37 -18z"/>
<path d="M5616 2910 c7 -50 17 -74 45 -104 11 -11 19 -23 19 -28 0 -4 4 -8 10
-8 11 0 -4 38 -36 90 -11 19 -26 49 -32 65 -11 28 -11 27 -6 -15z"/>
<path d="M6370 2935 c0 -21 30 -31 40 -14 11 17 3 29 -21 29 -10 0 -19 -7 -19
-15z"/>
<path d="M7644 2898 c-1 -24 -4 -65 -7 -93 l-6 -50 13 50 c15 55 20 135 9 135
-5 0 -9 -19 -9 -42z"/>
<path d="M6835 2813 c17 -3 36 -9 43 -15 18 -16 94 -28 89 -15 -4 12 -100 37
-137 35 -21 -1 -20 -2 5 -5z"/>
<path d="M6783 2743 c-13 -2 -23 -10 -23 -17 0 -9 16 -11 60 -8 59 4 74 0 170
-52 15 -9 35 -36 70 -95 9 -17 14 -55 15 -112 0 -95 -17 -142 -64 -172 -14 -9
-44 -30 -66 -47 -38 -28 -44 -30 -105 -24 -133 12 -174 37 -223 134 -34 68
-37 151 -8 208 20 39 92 118 126 139 18 11 18 12 -10 12 -21 1 -41 -9 -65 -32
-54 -51 -64 -68 -84 -130 -31 -99 -3 -217 66 -276 105 -91 197 -114 284 -72
22 11 53 23 68 27 16 4 36 19 45 35 9 16 19 29 24 29 4 0 7 6 7 14 0 8 12 23
28 34 26 20 27 23 27 114 0 85 -3 98 -30 148 -16 30 -40 63 -52 73 -25 20 -30
43 -11 49 9 3 9 6 0 12 -7 4 -12 2 -12 -3 0 -16 -55 -13 -97 4 -34 14 -91 17
-140 8z"/>
<path d="M5818 2688 c-4 -105 -5 -376 -1 -456 5 -87 7 -93 29 -98 29 -7 62 0
88 19 17 12 19 30 22 148 2 74 6 172 9 218 4 69 2 87 -11 102 -12 13 -15 29
-11 53 7 41 -2 46 -74 46 -48 0 -49 0 -51 -32z"/>
<path d="M6615 2702 c-12 -9 -27 -26 -35 -37 -8 -11 3 -4 23 14 33 32 42 41
35 41 -2 0 -12 -8 -23 -18z"/>
<path d="M7066 2692 c15 -32 54 -71 54 -55 0 5 -9 18 -20 28 -11 10 -22 26
-25 36 -4 11 -10 19 -15 19 -5 0 -2 -13 6 -28z"/>
<path d="M6743 2674 c-29 -14 -53 -30 -53 -35 0 -6 -11 -20 -24 -32 -13 -12
-34 -48 -47 -80 l-23 -58 24 -70 c42 -120 106 -169 223 -169 55 0 65 3 112 40
82 63 110 111 110 184 0 99 -49 177 -138 222 -62 31 -117 30 -184 -2z m7 -98
c0 -7 9 -16 20 -19 16 -4 20 -14 20 -45 0 -22 3 -54 6 -71 6 -27 3 -33 -14
-38 -12 -3 -22 -14 -24 -26 -5 -32 -26 -31 -58 3 -22 24 -30 42 -30 69 0 41
17 110 32 129 14 16 48 15 48 -2z m251 -155 c20 -16 21 -21 11 -47 -7 -16 -22
-36 -34 -43 -19 -12 -24 -11 -40 9 -22 27 -23 63 -2 84 20 21 37 20 65 -3z"/>
<path d="M7137 2580 c9 -22 18 -38 20 -36 5 5 -24 76 -31 76 -2 0 3 -18 11
-40z"/>
<path d="M7285 2610 c-4 -6 0 -19 9 -29 16 -17 16 -24 1 -87 -9 -38 -20 -76
-24 -84 -13 -22 14 -67 43 -72 32 -6 66 16 66 43 0 11 -9 37 -20 59 -14 27
-20 59 -20 105 0 36 -4 65 -9 65 -5 0 -16 3 -24 6 -8 3 -18 0 -22 -6z"/>
<path d="M7612 2434 c-1 -99 -5 -184 -9 -187 -11 -11 -15 -117 -4 -117 15 0
22 111 19 305 l-3 180 -3 -181z"/>
<path d="M6510 2554 c-6 -14 -9 -55 -8 -92 l1 -67 7 75 c4 41 10 83 15 93 4 9
4 17 1 17 -4 0 -11 -12 -16 -26z"/>
<path d="M7161 2475 c0 -33 4 -67 9 -75 12 -19 12 72 0 110 -6 19 -8 10 -9
-35z"/>
<path d="M6370 2460 c0 -5 12 -10 26 -10 14 0 23 4 19 10 -3 6 -15 10 -26 10
-10 0 -19 -4 -19 -10z"/>
<path d="M6120 2384 c-6 -14 -10 -41 -10 -60 0 -31 3 -34 28 -34 37 0 72 26
72 53 0 60 -71 92 -90 41z"/>
<path d="M6530 2314 c0 -5 14 -25 31 -44 l30 -35 -27 40 c-16 22 -29 42 -31
44 -2 2 -3 0 -3 -5z"/>
<path d="M6430 2264 c0 -29 85 -134 108 -134 10 0 6 10 -12 33 -15 17 -41 53
-58 80 -17 26 -33 47 -34 47 -2 0 -4 -12 -4 -26z"/>
<path d="M6483 2077 c-15 -4 -167 -7 -338 -6 -223 1 -310 -1 -313 -10 -2 -6 8
-11 25 -11 94 -1 453 -1 658 0 l240 2 -70 19 c-70 18 -148 21 -202 6z"/>
<path d="M7040 2078 c-47 -4 -101 -11 -120 -16 -33 -9 -30 -10 30 -12 36 -1
169 -3 295 -4 127 -2 244 -6 261 -10 38 -10 119 20 94 34 -20 11 -448 17 -560
8z"/>
<path d="M6780 2040 c20 -13 67 -13 75 0 4 6 -12 10 -42 10 -35 0 -44 -3 -33
-10z"/>
</g>
</svg>
