<?xml version="1.0" standalone="no"?>
<!DOCTYPE svg PUBLIC "-//W3C//DTD SVG 20010904//EN"
 "http://www.w3.org/TR/2001/REC-SVG-20010904/DTD/svg10.dtd">
<svg version="1.0" xmlns="http://www.w3.org/2000/svg"
 width="476.000000pt" height="524.000000pt" viewBox="0 0 476.000000 524.000000"
 preserveAspectRatio="xMidYMid meet">

<g transform="translate(0.000000,524.000000) scale(0.100000,-0.100000)"
fill="#000000" stroke="none">
<path d="M1110 5083 c-56 -38 -194 -170 -242 -232 -48 -61 -53 -64 -58 -42 -3
14 -10 26 -16 28 -14 5 -104 -148 -115 -196 -11 -47 9 -97 55 -140 l26 -24 0
36 c0 54 19 136 46 192 27 59 91 138 105 129 5 -3 48 32 95 78 127 124 192
232 104 171z"/>
<path d="M3720 5047 c-1 -18 52 -107 69 -116 18 -10 80 -89 108 -136 25 -42
45 -92 55 -137 12 -50 28 -55 28 -10 0 41 -38 152 -65 194 -27 41 -194 217
-195 205z"/>
<path d="M1439 5007 c-20 -12 -87 -60 -150 -106 -153 -113 -214 -187 -272
-333 -25 -63 -26 -108 -2 -170 8 -20 37 -25 33 -5 -3 18 40 143 73 207 37 73
73 121 107 141 15 9 26 21 25 27 -2 6 21 30 49 54 29 24 91 80 138 125 74 72
82 83 60 83 -14 0 -41 -10 -61 -23z"/>
<path d="M3499 5012 c5 -10 42 -45 82 -78 124 -102 218 -185 223 -197 3 -9 5
-8 5 1 1 7 -4 22 -10 33 -15 29 -193 199 -242 231 -50 33 -72 37 -58 10z"/>
<path d="M465 4836 c-4 -21 -5 -83 -3 -139 7 -154 28 -187 212 -330 151 -118
195 -171 275 -329 116 -227 298 -441 551 -645 85 -69 186 -143 224 -165 78
-46 255 -122 263 -114 3 3 -3 8 -13 12 -73 24 -215 103 -281 156 -43 35 -112
89 -153 119 -172 128 -327 289 -429 444 -40 63 -62 101 -156 277 -34 65 -78
113 -145 158 -89 61 -171 141 -194 190 -12 25 -34 66 -49 92 -18 30 -37 88
-53 164 -30 142 -39 163 -49 110z"/>
<path d="M3674 4805 c47 -58 66 -76 66 -58 -1 10 -46 61 -84 93 -21 18 -16 7
18 -35z"/>
<path d="M4228 4850 c-1 -8 -2 -64 -3 -125 0 -60 -4 -121 -9 -134 -15 -43 15
-12 40 43 34 74 29 172 -12 216 -12 13 -14 13 -16 0z"/>
<path d="M4055 4760 c-4 -27 -4 -54 0 -60 4 -6 7 -42 7 -80 0 -53 3 -68 13
-64 20 8 30 133 15 194 -16 67 -27 70 -35 10z"/>
<path d="M855 4742 c-32 -48 -65 -146 -65 -191 0 -25 3 -32 9 -22 5 8 9 30 9
49 0 21 7 41 16 48 9 6 16 19 16 28 0 13 25 77 47 119 2 4 2 7 -1 7 -3 0 -17
-17 -31 -38z"/>
<path d="M3872 4748 c2 -20 -1 -40 -5 -44 -4 -4 -7 -1 -7 7 -1 10 -4 9 -15 -4
-7 -11 -11 -25 -8 -33 6 -16 -13 -19 -22 -4 -3 6 -21 17 -38 26 l-32 17 22
-24 c27 -30 118 -217 110 -226 -4 -3 -18 -1 -33 5 -19 9 -24 9 -18 0 4 -6 8
-30 10 -52 1 -23 5 -59 9 -81 4 -25 1 -49 -7 -65 -12 -21 -11 -35 4 -90 23
-84 23 -93 -8 -159 -41 -86 -45 -106 -23 -119 10 -7 21 -12 24 -12 4 0 18 26
32 57 21 45 28 53 33 38 6 -17 7 -17 13 -1 12 32 7 46 -18 52 -14 3 -25 8 -25
11 0 9 44 87 56 100 6 6 14 38 18 70 4 32 17 77 30 99 16 29 21 46 14 58 -6
11 -4 25 6 44 8 15 18 40 21 56 11 49 25 10 25 -69 l0 -70 20 32 c18 30 18 35
4 85 -9 29 -22 59 -29 67 -11 11 -14 9 -20 -10 -9 -30 -34 -59 -51 -59 -18 0
-6 28 13 32 10 2 17 16 19 38 2 19 6 46 9 60 4 21 2 19 -12 -8 -9 -18 -21 -31
-27 -29 -5 2 -18 28 -29 58 -69 191 -67 186 -65 147z"/>
<path d="M3416 4680 c5 -5 48 -19 94 -31 76 -19 96 -29 182 -94 92 -69 116
-74 59 -12 -46 51 -104 84 -204 116 -99 32 -150 40 -131 21z"/>
<path d="M1612 4518 c-49 -72 -71 -122 -168 -381 -10 -27 -16 -98 -19 -226
l-5 -188 28 -26 27 -26 0 192 c0 172 2 200 23 267 31 102 40 125 77 200 27 54
45 105 80 218 9 27 -16 10 -43 -30z"/>
<path d="M660 4465 c7 -8 20 -15 28 -15 13 0 12 3 -4 15 -25 19 -40 19 -24 0z"/>
<path d="M4116 4431 c-15 -17 -17 -30 -12 -78 18 -172 18 -221 2 -302 -23
-114 -60 -200 -124 -296 -71 -105 -83 -117 -172 -180 -74 -52 -187 -160 -232
-221 -13 -17 -59 -64 -103 -104 -107 -98 -106 -96 -55 -67 52 31 162 136 228
221 32 40 79 81 147 126 243 163 357 363 371 650 4 81 1 124 -13 188 -18 82
-19 83 -37 63z"/>
<path d="M1066 4383 c-3 -21 -8 -75 -12 -120 -6 -82 -6 -82 -24 -60 -10 12
-14 23 -9 25 5 2 -3 19 -18 39 -16 21 -23 37 -16 41 16 11 -19 78 -38 74 -11
-2 -15 -10 -11 -29 5 -24 4 -25 -19 -10 -22 13 -26 13 -40 -3 -16 -17 -15 -19
21 -35 45 -20 115 -89 106 -103 -3 -6 0 -12 6 -15 10 -3 10 -7 -1 -20 -11 -14
-11 -18 3 -23 13 -5 14 -9 5 -20 -9 -11 -7 -14 10 -14 25 0 29 -28 5 -37 -13
-5 -9 -12 20 -39 26 -24 36 -41 36 -63 0 -20 4 -29 13 -26 11 5 47 -42 84
-108 11 -19 13 -19 13 -4 0 10 5 15 11 12 6 -4 8 -13 5 -21 -3 -8 3 -16 17
-19 12 -4 38 -29 57 -56 38 -54 81 -101 88 -94 5 5 -69 94 -170 204 -86 93
-116 146 -127 224 -4 29 -10 58 -14 64 -4 6 -2 68 3 138 10 122 8 178 -4 98z"/>
<path d="M3786 4407 c-22 -16 -14 -53 12 -59 15 -4 18 1 15 30 -3 43 -5 45
-27 29z"/>
<path d="M767 4403 c-15 -15 -6 -33 18 -33 13 0 28 -8 34 -17 7 -13 13 -15 21
-7 7 7 4 18 -14 37 -24 26 -46 34 -59 20z"/>
<path d="M3996 4297 c-9 -21 -26 -93 -37 -160 -12 -67 -28 -140 -36 -162 -8
-22 -21 -59 -28 -81 -7 -23 -20 -55 -29 -72 -17 -33 -102 -112 -121 -112 -20
0 -38 50 -24 66 7 8 10 17 7 20 -3 2 -15 -15 -26 -38 -11 -24 -31 -55 -44 -69
-14 -14 -36 -46 -50 -70 -14 -24 -42 -64 -61 -89 -20 -24 -33 -48 -31 -52 3
-4 -7 -24 -22 -43 -19 -25 -22 -35 -12 -35 19 0 48 32 48 53 0 12 8 17 26 17
19 0 25 4 21 14 -3 8 1 20 9 26 8 7 14 9 14 4 0 -5 5 -1 11 9 7 11 17 16 29
12 14 -5 21 2 31 32 7 21 12 41 11 46 -2 7 13 11 31 8 4 -1 32 19 62 44 31 25
60 46 65 46 6 1 14 2 19 3 5 0 13 5 18 10 4 5 3 6 -4 2 -25 -14 -23 15 3 49
32 43 42 39 19 -7 -16 -32 -15 -32 2 -12 10 12 26 36 35 53 9 17 29 36 43 41
14 5 25 11 25 14 0 2 3 12 7 22 4 12 3 15 -5 10 -16 -9 -16 19 0 47 11 21 11
21 18 2 5 -15 11 -8 28 38 22 59 41 161 23 122 -5 -11 -10 -31 -10 -45 -1 -14
-8 -35 -16 -45 -8 -11 -31 -41 -51 -68 -20 -27 -40 -44 -46 -41 -6 4 -17 -1
-24 -11 -22 -30 -28 -9 -6 22 43 62 61 111 67 189 4 43 14 104 22 135 20 74
13 109 -11 56z m-326 -705 c0 -4 -9 -13 -20 -20 -22 -13 -27 -3 -8 16 14 14
28 16 28 4z"/>
<path d="M2432 4085 c0 -16 2 -22 5 -12 2 9 2 23 0 30 -3 6 -5 -1 -5 -18z"/>
<path d="M2462 3958 c-1 -70 4 -144 13 -186 8 -39 15 -133 16 -209 l2 -138
-44 -110 c-40 -101 -47 -111 -76 -120 -40 -11 -42 -21 -7 -28 16 -3 33 2 44
12 10 9 30 24 45 35 36 24 65 74 65 111 1 17 7 41 15 55 16 29 20 156 5 165
-5 3 -10 30 -9 58 0 38 3 47 9 32 7 -17 9 -15 9 13 1 21 -4 32 -13 32 -18 0
-23 17 -31 104 -3 37 -11 91 -17 120 -6 28 -14 78 -18 111 -6 51 -7 43 -8 -57z"/>
<path d="M2423 3975 c0 -38 2 -53 4 -32 2 20 2 52 0 70 -2 17 -4 1 -4 -38z"/>
<path d="M3207 3953 c-9 -49 -21 -152 -27 -231 -8 -109 -20 -181 -50 -299 -22
-86 -38 -158 -35 -161 12 -12 36 23 31 44 -4 13 -2 25 3 29 5 3 15 30 22 59 8
38 17 56 30 59 13 4 19 14 19 36 0 26 4 31 24 31 13 0 26 6 29 13 8 20 -5 151
-16 165 -6 7 -9 80 -8 177 1 91 0 165 -2 165 -3 0 -12 -39 -20 -87z"/>
<path d="M1498 3859 c-3 -125 6 -179 29 -179 16 0 17 33 3 80 -6 19 -13 75
-16 125 -2 49 -7 91 -9 93 -2 3 -6 -51 -7 -119z"/>
<path d="M2089 3673 c-14 -47 -24 -266 -15 -328 14 -88 25 -43 20 78 -4 82 -1
147 8 200 15 82 7 114 -13 50z"/>
<path d="M3443 3670 c0 -25 2 -35 4 -22 2 12 2 32 0 45 -2 12 -4 2 -4 -23z"/>
<path d="M1420 3631 c0 -7 -5 -9 -12 -5 -7 4 0 -7 16 -24 17 -18 33 -32 38
-32 16 0 7 27 -17 50 -14 13 -25 18 -25 11z"/>
<path d="M3412 3600 c-1 -19 -5 -46 -7 -60 l-6 -25 11 25 c6 13 9 40 7 60 l-4
35 -1 -35z"/>
<path d="M2120 3523 c-3 -148 -2 -177 6 -213 l8 -35 7 45 c4 25 3 49 -1 53 -4
5 -6 43 -3 85 3 43 1 93 -5 112 -9 31 -10 26 -12 -47z"/>
<path d="M2460 3558 c0 -40 -9 -108 -24 -183 -5 -23 -3 -21 9 10 16 40 33 215
21 215 -3 0 -6 -19 -6 -42z"/>
<path d="M1610 3497 c0 -24 150 -179 167 -173 7 3 17 -4 23 -14 6 -11 20 -20
30 -20 11 0 20 -6 20 -12 0 -7 26 -24 58 -37 31 -13 82 -34 112 -46 30 -13 67
-26 81 -30 24 -6 25 -4 21 24 -2 19 0 31 7 31 6 0 11 5 11 11 0 5 -4 8 -10 4
-5 -3 -17 -1 -27 4 -41 23 -152 71 -162 71 -19 0 -128 49 -184 82 -28 17 -73
52 -99 77 -34 32 -48 40 -48 28z"/>
<path d="M3361 3410 c-8 -24 -7 -30 5 -30 9 0 14 10 14 30 0 17 -2 30 -4 30
-2 0 -9 -13 -15 -30z"/>
<path d="M3310 3325 c-7 -9 -11 -17 -9 -20 3 -2 10 5 17 15 14 24 10 26 -8 5z"/>
<path d="M2601 3260 c-8 -30 -16 -62 -18 -70 -3 -8 5 0 16 19 15 22 21 45 19
70 -3 35 -3 35 -17 -19z"/>
<path d="M3638 3170 c3 -69 1 -98 -12 -124 -9 -19 -16 -41 -16 -50 0 -47 -89
-180 -108 -161 -9 9 32 75 46 75 8 0 12 6 9 13 -2 6 2 20 11 29 8 10 16 29 17
42 2 14 10 38 18 54 15 31 22 182 9 182 -5 0 -30 -23 -56 -50 -26 -28 -51 -48
-55 -45 -12 7 -118 -36 -168 -68 -24 -15 -43 -35 -43 -45 -1 -27 -35 -95 -64
-126 -14 -16 -26 -31 -26 -33 0 -2 11 -19 24 -36 13 -18 29 -49 35 -69 7 -21
16 -40 21 -43 10 -6 78 24 98 43 16 15 14 14 48 2 26 -10 26 -11 9 -30 -23
-25 -11 -26 24 -1 15 11 35 38 45 59 10 22 29 45 42 50 27 13 94 138 94 176 0
13 6 29 14 35 21 18 30 159 11 188 -9 13 -19 23 -23 23 -5 0 -6 -40 -4 -90z
m-168 -204 c0 -7 -7 -19 -14 -26 -8 -6 -20 -27 -26 -46 -7 -19 -17 -33 -23
-31 -7 2 -16 -6 -22 -17 -13 -26 -56 -48 -70 -36 -6 5 -9 29 -7 54 3 38 8 47
27 52 13 3 26 12 29 20 3 8 14 14 24 14 11 0 25 7 32 15 16 19 50 20 50 1z"/>
<path d="M1521 3211 c-11 -7 -12 -22 -7 -65 9 -77 40 -156 87 -218 62 -83 186
-215 207 -220 10 -3 -22 36 -72 86 -126 125 -186 246 -186 373 0 54 -4 60 -29
44z"/>
<path d="M1585 3158 c12 -92 23 -122 83 -213 39 -59 77 -103 111 -129 31 -23
50 -44 47 -52 -5 -13 7 -19 28 -15 6 1 19 -3 31 -9 15 -8 29 -8 48 -1 22 8 27
17 27 42 0 30 1 31 18 16 10 -10 23 -17 28 -17 5 0 16 -11 25 -25 14 -24 16
-24 38 -9 20 14 22 22 17 55 -11 67 26 42 49 -33 8 -24 14 -36 14 -28 1 13 2
13 11 0 12 -18 13 -30 3 -29 -5 1 -17 1 -28 -1 l-20 -1 20 -9 c34 -15 42 -11
49 21 5 28 9 31 33 24 39 -9 41 -14 16 -34 -15 -13 -20 -25 -16 -40 3 -11 1
-21 -5 -21 -5 0 -13 -11 -16 -25 -6 -23 -8 -24 -29 -11 -12 8 -33 17 -47 20
l-25 7 25 -18 c49 -35 94 -79 112 -108 l19 -30 -7 28 c-6 26 -5 28 21 21 25
-6 26 -5 16 14 -18 33 -14 44 10 31 18 -9 21 -18 16 -55 -2 -26 0 -44 5 -44 6
0 8 -7 5 -15 -4 -8 -1 -41 4 -74 10 -52 13 -58 31 -53 22 5 22 8 1 -100 -3
-17 -1 -28 6 -28 6 0 10 3 9 8 -4 16 26 122 35 122 5 0 7 -10 4 -22 -4 -13 0
-26 9 -33 15 -11 9 -49 -6 -40 -9 6 -64 -104 -57 -112 3 -2 11 5 17 17 10 18
14 20 21 9 6 -11 9 -11 13 1 13 41 15 42 14 5 -1 -60 -1 -61 35 -57 27 3 36
-1 45 -20 7 -12 10 -15 8 -5 -7 23 6 22 24 -3 8 -11 22 -20 32 -20 12 0 18 -8
18 -23 0 -13 5 -28 12 -35 6 -6 8 -15 4 -19 -4 -5 -13 -1 -19 8 -10 14 -14 14
-25 3 -10 -11 -9 -17 8 -34 11 -11 23 -20 28 -19 4 0 10 -10 14 -23 5 -20 6
-21 7 -3 1 16 3 17 11 5 12 -20 17 -12 28 45 8 41 11 46 17 28 9 -27 20 -29
34 -6 7 14 13 15 21 6 9 -8 7 -18 -10 -41 -26 -35 -24 -86 4 -143 9 -18 14
-34 12 -36 -9 -10 -56 31 -56 48 0 10 -9 23 -21 29 -26 14 -35 7 -14 -10 20
-17 19 -30 -2 -30 -17 -1 -17 -1 0 -11 9 -5 17 -22 17 -37 1 -25 2 -26 14 -9
13 17 15 15 36 -18 23 -38 40 -42 20 -6 -12 24 1 28 20 6 7 -9 10 -26 6 -42
-5 -21 -4 -24 4 -13 6 10 10 11 10 3 0 -7 5 -13 12 -13 16 0 58 -49 58 -66 0
-20 46 -47 68 -40 10 3 27 -1 38 -9 27 -21 40 -19 68 12 14 15 28 24 32 20 4
-4 -3 -18 -15 -31 -19 -20 -20 -24 -6 -36 8 -7 15 -16 15 -20 0 -4 7 -25 16
-46 l17 -39 9 28 c8 22 6 32 -6 46 -9 10 -16 24 -16 31 0 9 5 7 14 -6 14 -18
15 -18 25 9 l11 28 22 -21 c12 -11 27 -20 34 -20 22 0 51 47 70 115 10 36 22
65 26 65 10 0 20 -38 12 -51 -3 -6 -2 -21 4 -32 14 -28 62 -164 70 -197 5 -24
5 -24 -14 -6 -10 11 -24 38 -31 60 l-12 41 4 -50 c9 -108 16 -148 31 -162 8
-9 13 -22 10 -30 -3 -8 -6 -20 -6 -26 -1 -7 -8 0 -16 16 -15 28 -26 35 -23 14
1 -6 -1 -20 -5 -29 -7 -16 -24 -18 -137 -18 -112 0 -129 2 -129 16 0 9 -13 29
-30 44 -19 18 -30 38 -30 55 0 31 24 30 26 -1 2 -37 4 -44 14 -44 6 0 10 13
10 29 0 36 15 48 29 24 6 -11 11 -13 11 -5 0 7 4 11 9 7 21 -12 20 16 -3 66
-41 96 -47 107 -40 82 6 -24 -11 -32 -19 -10 -3 6 -6 2 -6 -10 -1 -21 -31 -35
-31 -15 0 4 -9 8 -20 9 -17 2 -20 -4 -20 -44 l0 -46 -21 19 c-22 19 -22 19
-17 -6 3 -14 9 -34 14 -44 7 -19 7 -19 -22 1 -16 11 -34 18 -40 16 -14 -5 -39
89 -31 117 3 11 -1 24 -9 31 -10 8 -14 8 -14 0 0 -6 -4 -11 -8 -11 -10 0 -38
90 -34 115 2 16 0 17 -8 5 -5 -8 -10 -28 -10 -45 0 -22 -3 -26 -9 -16 -5 8 -7
20 -4 28 3 7 0 20 -7 28 -6 8 -9 23 -6 33 5 14 -1 24 -20 37 l-27 17 6 -42 c5
-40 5 -41 -14 -24 -17 16 -19 16 -19 1 0 -23 -20 -22 -21 1 -1 9 -5 -3 -10
-27 -11 -59 -33 -81 -25 -26 l6 40 -17 -37 c-21 -50 -48 -52 -39 -3 5 22 3 35
-4 35 -6 0 -4 12 5 31 9 17 14 33 11 37 -3 3 -6 0 -6 -7 0 -7 -4 -10 -10 -6
-5 3 -7 12 -3 20 7 20 -7 19 -24 -2 -13 -16 -14 -15 -8 10 4 19 2 26 -5 22
-17 -11 -11 25 12 66 25 45 18 63 -11 28 l-20 -24 -2 35 c-1 19 -3 61 -5 93
-3 73 -10 81 -24 28 -6 -25 -17 -41 -26 -41 -12 0 -14 11 -11 57 3 46 1 61
-15 77 -15 17 -22 18 -37 9 -18 -11 -19 -9 -15 28 2 22 6 45 9 50 4 5 2 9 -3
9 -6 0 -13 -12 -17 -27 -5 -21 -8 -24 -16 -12 -10 16 -10 18 -13 -64 -1 -41 1
-48 16 -44 16 5 16 3 3 -24 -8 -15 -15 -34 -14 -41 0 -7 5 -1 11 15 16 44 27
31 13 -15 -6 -24 -15 -56 -19 -73 l-7 -30 21 25 20 25 -5 -30 c-3 -18 1 -40
10 -55 8 -14 18 -33 21 -43 6 -17 7 -17 21 0 14 17 14 17 8 -2 -8 -23 -9 -28
-7 -72 1 -21 7 -32 15 -30 7 1 14 -15 18 -43 3 -25 7 -39 7 -32 1 7 6 11 12 7
5 -3 7 -12 4 -19 -7 -17 20 -38 51 -40 22 -1 25 -5 20 -23 -7 -31 21 -20 40
16 14 25 14 25 15 4 0 -13 -9 -32 -19 -42 -12 -12 -21 -41 -26 -79 -6 -51 -4
-60 10 -66 14 -5 16 -14 11 -47 -8 -49 8 -45 30 8 20 47 36 31 32 -33 l-3 -54
-72 0 c-65 0 -73 2 -73 19 0 11 -7 26 -15 35 -8 8 -15 20 -15 26 0 21 -20 -1
-21 -23 -1 -14 -3 -16 -6 -6 -2 9 1 35 6 59 13 57 3 72 -20 29 l-18 -34 -1 28
c0 15 5 27 10 27 6 0 10 20 10 44 0 24 3 53 7 63 6 16 8 15 14 -7 7 -23 7 -23
8 7 2 53 -15 46 -34 -15 -9 -31 -19 -61 -21 -67 -6 -16 3 67 11 95 6 23 5 24
-8 7 -20 -24 -29 -7 -22 40 4 29 3 33 -4 17 -18 -41 -30 -35 -16 7 17 48 19
76 3 39 l-11 -25 -7 30 c-4 17 -9 48 -10 70 -1 22 -4 32 -7 22 -5 -18 -6 -18
-24 -1 -10 9 -19 23 -19 31 0 8 -4 11 -10 8 -5 -3 -10 -16 -10 -28 0 -16 -3
-18 -9 -8 -5 7 -6 23 -4 35 4 17 3 18 -6 6 -9 -13 -11 -13 -11 0 0 9 4 20 9
25 6 6 13 28 16 50 5 35 2 42 -19 58 -25 17 -25 17 -41 -13 l-16 -30 32 0 c28
0 31 -3 25 -22 -4 -13 -12 -58 -18 -100 -7 -43 -16 -78 -21 -78 -6 0 -7 20 -2
48 4 26 8 57 10 69 2 11 6 31 10 43 5 16 -3 11 -30 -19 -33 -36 -35 -42 -22
-55 10 -10 13 -25 8 -46 -7 -35 -28 -37 -23 -2 3 28 -4 28 -19 1 -8 -16 -8
-23 1 -29 9 -6 9 -13 1 -28 -6 -11 -11 -29 -11 -39 0 -13 6 -8 20 15 21 35 40
42 40 15 0 -9 -22 -38 -50 -63 -27 -25 -50 -53 -50 -61 1 -15 10 -5 36 38 7
10 15 15 18 12 4 -4 -9 -40 -29 -80 l-37 -74 29 28 c34 32 48 35 33 7 -10 -18
-7 -24 13 -21 4 0 7 -11 8 -26 l0 -28 16 23 c34 49 44 18 13 -41 l-20 -38 25
17 c33 21 37 16 25 -28 -10 -33 -14 -36 -58 -43 -26 -4 -62 -13 -79 -20 -35
-15 -38 -12 -35 40 1 18 0 18 -10 -2 -6 -13 -15 -23 -20 -23 -12 0 -10 13 8
38 8 12 11 22 6 22 -12 0 -6 97 8 134 6 16 9 31 6 33 -4 4 -10 -5 -43 -67
l-13 -25 0 25 c1 14 7 34 15 44 8 11 15 27 15 35 0 11 -4 10 -15 -5 -20 -27
-20 4 0 34 15 20 15 21 -2 15 -10 -4 -20 -10 -23 -13 -9 -13 -50 -22 -50 -11
0 5 10 17 23 26 15 12 18 19 10 22 -17 6 -16 23 1 23 17 0 27 23 16 39 -5 9
-14 3 -31 -21 -13 -18 -23 -34 -21 -35 10 -12 -3 -48 -25 -69 -22 -21 -25 -27
-13 -34 19 -12 12 -18 -24 -22 -25 -2 -31 1 -36 22 -9 38 -36 37 -44 -1 -12
-62 -7 -97 14 -104 22 -7 22 -14 0 -116 -5 -27 -2 -45 13 -75 11 -21 33 -64
48 -94 l28 -55 1 51 c0 55 12 74 46 74 12 0 27 7 34 15 16 20 94 20 114 0 20
-21 26 -19 26 10 0 25 26 46 48 38 6 -3 12 0 12 6 0 17 72 11 105 -9 17 -9 29
-23 27 -30 -3 -14 16 -40 30 -40 6 0 5 6 -2 14 -6 8 -10 25 -8 37 4 33 46 41
170 33 92 -6 108 -9 113 -25 3 -10 1 -28 -5 -40 -10 -18 -9 -20 7 -17 10 2 20
15 23 29 4 22 10 25 55 27 45 1 47 0 20 -8 -16 -6 -35 -8 -42 -6 -7 3 -13 -6
-15 -22 -3 -24 -9 -28 -48 -34 -25 -3 -137 -5 -250 -2 -113 2 -212 3 -220 3
-8 0 -47 0 -86 1 -93 1 -99 -6 -90 -108 11 -129 -7 -117 174 -117 86 0 231 -2
322 -4 l166 -4 44 28 c91 57 116 64 217 55 65 -6 104 -14 129 -29 25 -15 52
-21 95 -21 34 0 59 -4 59 -10 0 -6 -16 -10 -35 -8 -19 1 -37 -1 -41 -5 -8 -8
8 -9 241 -12 217 -3 215 -4 215 104 0 73 -2 80 -25 95 l-25 16 0 -39 c0 -89
-15 -71 -20 24 l-5 100 -137 5 c-76 3 -140 9 -144 13 -4 4 52 7 124 7 81 0
132 4 132 10 0 20 39 9 90 -25 29 -19 56 -35 61 -35 12 0 12 62 0 92 -16 44
-34 103 -36 118 0 8 -14 42 -29 75 -16 33 -30 80 -31 105 -3 58 -56 161 -119
232 -42 46 -42 48 -17 48 10 0 24 7 31 15 12 14 17 12 47 -17 19 -18 46 -53
60 -78 34 -58 103 -151 125 -168 10 -7 21 -31 24 -52 4 -22 12 -47 19 -57 9
-13 10 -22 2 -35 -9 -13 -7 -26 6 -53 10 -20 15 -40 12 -45 -3 -5 0 -30 6 -57
13 -56 12 -357 -1 -402 -8 -29 -7 -31 16 -31 13 0 24 -4 24 -9 0 -16 -30 -33
-50 -28 -11 3 -20 1 -20 -4 0 -4 -14 -24 -31 -44 l-32 -36 5 -199 c6 -215 0
-276 -28 -297 -14 -10 -99 -13 -388 -13 -204 0 -436 -5 -516 -11 -101 -7 -146
-7 -148 1 -3 7 -105 10 -308 10 l-305 0 -14 34 c-12 28 -13 57 -5 158 5 68 10
180 10 249 0 144 -5 157 -83 202 -24 14 -55 43 -69 64 -55 81 -73 244 -43 400
18 93 19 131 5 117 -28 -28 -44 -175 -42 -385 0 -108 63 -209 172 -280 l25
-17 0 -248 c0 -137 2 -265 3 -285 l2 -36 388 -8 c403 -8 481 -8 902 -6 140 1
298 -1 350 -4 144 -10 134 -30 140 287 3 181 9 270 17 284 7 12 28 31 47 42
20 12 38 31 41 44 3 13 -1 63 -10 112 -12 72 -13 106 -4 177 20 166 -25 385
-98 471 -20 24 -64 86 -98 138 -75 115 -114 157 -189 205 -31 19 -56 42 -56
50 0 20 33 39 110 64 61 20 67 25 108 87 38 58 42 69 33 95 -5 16 -7 45 -4 64
5 32 1 41 -33 76 -47 49 -177 132 -199 127 -12 -2 -5 -15 27 -51 32 -36 61
-55 113 -76 78 -31 87 -46 56 -90 -12 -16 -21 -36 -21 -44 0 -26 -46 -47 -106
-47 -39 0 -68 -7 -95 -22 -46 -26 -53 -41 -38 -85 15 -48 7 -65 -26 -53 -38
14 -137 12 -160 -3 -29 -19 -93 -35 -151 -38 -47 -2 -56 1 -112 44 -36 28 -71
47 -86 47 -16 0 -26 6 -26 14 0 28 12 46 32 46 17 0 19 5 13 39 -5 31 -3 41
11 49 12 7 14 14 6 27 -8 16 -11 13 -23 -18 -12 -35 -29 -50 -29 -26 0 5 -4 8
-9 5 -5 -3 -7 -26 -5 -51 l3 -45 -34 26 c-19 14 -40 27 -47 28 -26 3 -38 18
-39 44 0 15 -3 21 -6 15 -3 -9 -10 -9 -28 3 -22 14 -22 17 -8 45 9 18 12 40 8
56 -6 26 -54 79 -88 98 -13 7 -21 29 -27 75 -4 36 -18 86 -30 113 -12 26 -18
56 -15 67 9 28 59 66 136 105 126 64 187 64 259 -2 53 -47 98 -53 182 -23 86
31 110 24 144 -41 25 -51 108 -149 126 -149 12 0 -21 49 -53 80 -22 21 -39 48
-43 70 -1 3 -5 11 -9 18 -5 7 -3 26 5 43 16 37 47 36 65 -2 28 -59 73 -61 73
-4 0 44 -25 70 -82 85 -39 10 -51 10 -64 -1 -14 -11 -18 -10 -30 6 -8 10 -14
25 -14 32 0 7 -4 13 -10 13 -19 0 -10 32 10 37 11 3 20 14 20 24 0 10 5 21 11
25 8 5 4 13 -11 24 -18 14 -30 15 -61 8 -23 -6 -36 -15 -33 -23 6 -14 -33 -85
-47 -85 -5 0 -6 -13 -3 -29 5 -23 2 -32 -14 -40 -10 -6 -23 -7 -27 -3 -3 4 -6
3 -5 -3 3 -15 -11 -55 -19 -55 -12 0 -31 23 -31 37 0 7 5 13 11 13 18 0 41 29
37 48 -3 14 -11 10 -42 -22 -34 -35 -40 -38 -62 -27 -15 6 -23 7 -19 1 8 -13
-5 -12 -30 3 -11 7 -20 19 -20 27 0 8 -13 21 -30 29 l-30 15 25 6 c33 8 32 19
-7 63 l-32 36 -45 -15 c-25 -9 -49 -21 -53 -27 -14 -24 -11 -57 7 -67 22 -12
31 -35 23 -56 -6 -15 -103 -64 -129 -64 -7 0 -19 8 -26 18 -7 10 -21 21 -30
25 -10 3 -18 12 -18 20 0 13 -53 37 -83 37 -9 0 -22 9 -29 20 -8 13 -24 20
-43 20 -25 0 -34 7 -55 46 -25 46 -48 64 -105 81 -16 4 -29 13 -28 18 2 13
-24 28 -36 21 -5 -4 -38 7 -73 24 -34 16 -69 30 -77 30 -8 0 -51 20 -97 45
-45 25 -87 45 -94 45 -9 0 -10 -15 -5 -52z m169 -125 c3 -4 14 -8 23 -9 9 -2
21 -10 26 -19 5 -9 22 -31 38 -50 17 -19 30 -38 31 -42 0 -4 4 -18 9 -31 5
-13 9 -26 9 -29 0 -4 7 -15 17 -25 21 -24 5 -23 -27 2 -14 11 -32 20 -41 20
-20 0 -45 50 -29 60 13 8 -62 78 -79 72 -6 -2 -11 8 -11 27 0 29 17 41 34 24z
m506 -408 c20 -24 1 -39 -21 -16 -10 11 -19 23 -19 26 0 11 28 4 40 -10z m375
-655 c-5 -8 -11 -8 -17 -2 -6 6 -7 16 -3 22 5 8 11 8 17 2 6 -6 7 -16 3 -22z
m-219 -76 c-4 -9 -9 -15 -11 -12 -3 3 -3 13 1 22 4 9 9 15 11 12 3 -3 3 -13
-1 -22z m894 -313 c0 -9 -8 -3 -20 17 -25 41 -25 54 0 23 11 -13 20 -31 20
-40z m-1144 -10 c17 14 19 -2 2 -19 -13 -13 -18 -84 -6 -93 4 -3 1 -14 -8 -25
-15 -19 -15 -18 -11 4 6 26 -1 28 -31 6 -13 -9 -22 -11 -22 -4 0 6 11 15 25
20 27 10 35 50 10 50 -19 0 -19 -1 2 46 12 29 18 34 21 21 3 -14 7 -16 18 -6z
m-78 -107 c-7 -15 -14 -21 -16 -15 -2 7 2 18 8 26 18 22 21 18 8 -11z m117
-34 c-19 -38 -19 -49 1 -24 14 17 15 17 10 1 -3 -10 -6 -24 -6 -30 0 -6 -10
-1 -23 11 -13 12 -27 19 -30 15 -4 -3 -7 -4 -7 0 0 9 53 57 63 57 4 0 1 -13
-8 -30z m435 -105 c10 -12 9 -15 -3 -15 -9 0 -24 -12 -32 -27 l-16 -28 5 34
c4 18 6 57 7 85 l0 51 14 -43 c7 -23 19 -49 25 -57z m400 62 c0 -18 -2 -19
-10 -7 -13 20 -13 43 0 35 6 -3 10 -16 10 -28z m-490 -12 c-8 -21 -14 -25 -22
-17 -9 9 -7 17 7 32 23 26 28 20 15 -15z m155 -6 c-5 -16 -4 -19 6 -14 9 6 11
2 6 -16 -4 -13 -7 -44 -8 -69 0 -25 -3 -39 -6 -32 -8 20 -20 14 -27 -13 -8
-32 -26 -32 -26 -1 0 14 10 32 23 41 17 12 22 26 23 65 2 58 2 60 10 60 3 0 2
-10 -1 -21z m-845 -20 c0 -11 -69 -43 -77 -35 -3 2 12 14 34 25 46 24 43 23
43 10z m30 -22 c0 -16 -50 -90 -57 -84 -2 3 1 16 7 29 10 19 10 21 -1 11 -31
-30 -30 -10 1 22 36 37 50 43 50 22z m981 -27 c4 -19 7 -26 8 -15 1 18 3 18
14 4 7 -9 18 -14 24 -12 17 6 46 -24 38 -38 -5 -7 -14 -4 -28 8 -12 9 -16 11
-9 3 17 -20 15 -31 -5 -23 -11 4 -14 3 -9 -5 5 -8 -1 -12 -17 -12 -21 0 -26 7
-36 48 -7 26 -14 55 -17 65 -5 14 -1 18 13 15 12 -2 20 -15 24 -38z m-85 -14
c-9 -14 -16 -34 -16 -45 0 -11 -5 -23 -11 -26 -14 -10 -38 25 -38 55 0 24 0
24 14 -5 7 -16 14 -25 14 -20 2 17 42 78 48 71 3 -3 -2 -17 -11 -30z m25 -37
l-9 -44 -1 41 c-1 22 2 44 6 47 12 12 13 1 4 -44z m-941 -14 c-7 -8 -17 -15
-23 -15 -5 0 -2 9 8 20 21 23 35 19 15 -5z m1160 -76 c-58 -10 -366 -9 -325 1
17 4 107 8 200 8 116 0 156 -3 125 -9z m340 -38 c11 -21 14 -161 4 -198 -6
-22 -10 -23 -124 -23 -65 0 -125 3 -134 6 -13 5 -16 25 -16 115 l0 108 53 4
c28 2 87 4 129 5 67 2 79 -1 88 -17z m-362 -26 c8 -3 12 -26 12 -69 0 -51 -4
-67 -17 -75 -22 -12 -193 -2 -212 13 -10 7 -12 26 -8 68 3 31 8 61 11 67 6 9
182 5 214 -4z m-572 -50 c30 -12 35 -19 30 -37 -3 -13 -6 -29 -6 -35 0 -15
-116 -18 -138 -4 -8 5 -12 22 -10 42 3 31 6 34 43 40 22 3 41 7 43 8 1 0 19
-6 38 -14z m-63 -121 c59 -3 107 -10 107 -16 0 -10 -157 -6 -283 8 -94 10 -99
27 -6 20 41 -3 122 -8 182 -12z m192 -14 c4 -6 -8 -10 -29 -10 -20 0 -36 5
-36 10 0 6 13 10 29 10 17 0 33 -4 36 -10z"/>
<path d="M3186 1024 c-11 -29 -6 -34 34 -34 33 0 40 3 40 20 0 11 -3 21 -7 21
-49 7 -62 6 -67 -7z"/>
<path d="M2836 1043 c1 -16 3 -37 3 -47 1 -29 7 -16 15 32 5 31 3 42 -7 42 -8
0 -12 -11 -11 -27z"/>
<path d="M2914 1063 c-15 -3 -24 -14 -28 -35 -9 -46 -8 -48 22 -48 26 0 28 3
24 30 -3 22 0 30 11 30 8 0 18 -6 20 -12 3 -7 6 -1 6 15 1 28 -5 30 -55 20z"/>
<path d="M2371 1021 c-19 -12 -6 -41 19 -41 16 0 21 5 18 22 -3 25 -17 32 -37
19z"/>
<path d="M2581 3143 c0 -4 4 -17 9 -28 8 -19 9 -19 9 2 1 12 -3 25 -9 28 -5 3
-10 3 -9 -2z"/>
<path d="M3262 3089 c-43 -30 -100 -123 -83 -133 5 -3 11 7 14 22 3 16 31 53
63 85 32 31 56 57 53 57 -2 -1 -23 -14 -47 -31z"/>
<path d="M2025 3096 c17 -8 41 -16 55 -20 l25 -7 -25 14 c-14 8 -38 17 -55 20
l-30 6 30 -13z"/>
<path d="M2610 3060 c0 -14 39 -32 60 -28 14 2 9 8 -20 20 -22 9 -40 13 -40 8z"/>
<path d="M2201 3028 c25 -13 65 -39 89 -58 l45 -35 -23 31 c-21 30 -77 63
-132 78 -14 4 -4 -4 21 -16z"/>
<path d="M2798 3023 c7 -3 16 -2 19 1 4 3 -2 6 -13 5 -11 0 -14 -3 -6 -6z"/>
<path d="M2461 2650 c-73 -26 -77 -32 -54 -72 19 -33 20 -33 97 -35 62 -1 80
-5 91 -20 17 -23 30 -11 16 15 -15 28 -14 75 2 91 10 11 9 13 -4 8 -9 -3 -20
3 -27 14 -15 24 -52 24 -121 -1z m79 -20 c0 -5 -7 -10 -15 -10 -8 0 -15 5 -15
10 0 6 7 10 15 10 8 0 15 -4 15 -10z"/>
<path d="M2694 2613 c-10 -10 -12 -19 -6 -21 14 -4 52 16 52 28 0 16 -27 11
-46 -7z"/>
<path d="M2700 2561 c0 -14 5 -19 15 -14 17 6 15 25 -3 31 -7 2 -12 -5 -12
-17z"/>
<path d="M3185 2500 c10 -11 20 -20 23 -20 3 0 -3 9 -13 20 -10 11 -20 20 -23
20 -3 0 3 -9 13 -20z"/>
<path d="M2563 2356 c-13 -6 -23 -13 -23 -16 0 -3 18 -23 40 -44 26 -24 40
-32 40 -22 0 8 -10 22 -21 30 -16 11 -20 21 -15 40 3 14 5 25 4 25 -2 -1 -13
-6 -25 -13z"/>
<path d="M2508 2324 c-13 -13 -9 -52 7 -57 8 -4 17 -2 20 3 4 6 2 10 -4 10 -5
0 -11 12 -13 26 -2 14 -6 22 -10 18z"/>
<path d="M3152 2272 c-14 -38 51 -71 97 -49 35 16 40 55 9 61 -45 9 -100 2
-106 -12z"/>
<path d="M3026 2263 c-9 -29 14 -107 27 -94 7 7 6 25 -3 53 -7 24 -13 48 -15
53 -1 6 -5 0 -9 -12z"/>
<path d="M3398 2273 c-24 -6 -23 -33 1 -33 23 0 38 18 25 29 -5 4 -17 6 -26 4z"/>
<path d="M2637 2264 c-4 -4 -7 -14 -7 -23 0 -11 3 -12 11 -4 6 6 10 16 7 23
-2 6 -7 8 -11 4z"/>
<path d="M2556 2241 c-11 -17 1 -58 24 -81 20 -20 20 -20 20 21 0 24 -4 38
-10 34 -6 -3 -14 4 -18 16 -6 16 -11 19 -16 10z"/>
<path d="M3094 2234 c3 -9 6 -20 6 -25 0 -6 5 -7 10 -4 6 3 10 -1 10 -9 0 -9
7 -16 15 -16 21 0 19 17 -5 30 -11 6 -20 17 -20 25 0 8 -5 15 -11 15 -6 0 -8
-7 -5 -16z"/>
<path d="M2977 2207 c-9 -34 27 -127 44 -110 11 11 -7 63 -22 63 -4 0 -9 17
-11 38 -3 36 -3 36 -11 9z"/>
<path d="M2690 2105 c0 -16 5 -37 10 -45 7 -12 10 -8 10 15 0 17 -5 37 -10 45
-7 12 -10 8 -10 -15z"/>
<path d="M2732 2088 c2 -13 9 -23 17 -23 23 0 24 23 1 35 -19 10 -21 9 -18
-12z"/>
<path d="M2777 2080 c-4 -15 0 -20 13 -20 13 0 17 5 13 20 -3 11 -9 20 -13 20
-4 0 -10 -9 -13 -20z"/>
<path d="M2820 2079 c0 -9 7 -22 15 -29 19 -16 19 0 0 26 -12 16 -14 16 -15 3z"/>
<path d="M2940 2040 c6 -11 13 -20 16 -20 2 0 0 9 -6 20 -6 11 -13 20 -16 20
-2 0 0 -9 6 -20z"/>
<path d="M2910 2030 c0 -5 5 -10 10 -10 6 0 10 5 10 10 0 6 -4 10 -10 10 -5 0
-10 -4 -10 -10z"/>
<path d="M2530 1772 c0 -10 -4 -22 -10 -28 -5 -5 -5 -15 -1 -23 6 -9 10 -6 15
13 3 14 11 26 16 26 15 0 12 17 -5 24 -10 3 -15 -1 -15 -12z"/>
<path d="M2611 1752 c-6 -13 -11 -40 -9 -60 l3 -37 13 43 c17 55 12 88 -7 54z"/>
<path d="M2550 1711 c0 -10 7 -21 15 -25 16 -6 19 3 9 28 -8 22 -24 20 -24 -3z"/>
<path d="M1955 1659 c-24 -30 -28 -48 -6 -35 10 6 43 66 36 66 -2 0 -15 -14
-30 -31z"/>
<path d="M2321 1584 c0 -11 3 -14 6 -6 3 7 2 16 -1 19 -3 4 -6 -2 -5 -13z"/>
<path d="M2443 1474 c-24 -27 -30 -48 -12 -42 9 3 44 68 36 68 -1 0 -12 -12
-24 -26z"/>
<path d="M3437 1480 c3 -11 7 -20 9 -20 2 0 4 9 4 20 0 11 -4 20 -9 20 -5 0
-7 -9 -4 -20z"/>
<path d="M3496 1465 c-4 -14 -14 -25 -23 -25 -15 0 -15 -1 0 -18 10 -10 17
-26 17 -35 0 -17 26 -47 40 -47 5 0 14 9 20 20 9 16 5 31 -18 75 -28 52 -30
54 -36 30z"/>
<path d="M1785 1470 c3 -5 15 -10 25 -10 10 0 22 5 25 10 4 6 -7 10 -25 10
-18 0 -29 -4 -25 -10z"/>
<path d="M2462 1440 c-8 -13 -11 -33 -7 -52 10 -43 27 -20 23 31 -3 39 -4 40
-16 21z"/>
<path d="M1684 1013 c5 -57 32 -117 65 -147 30 -27 26 -6 -10 67 -18 34 -38
78 -46 97 l-13 35 4 -52z"/>
<path d="M3503 983 c0 -21 -2 -62 -6 -90 -4 -29 -3 -53 2 -53 5 0 11 24 15 53
4 28 10 69 13 90 4 29 2 37 -10 37 -11 0 -15 -10 -14 -37z"/>
<path d="M2763 900 c-62 -9 -67 -23 -5 -14 30 4 57 2 64 -3 7 -6 31 -14 53
-18 45 -8 65 -21 65 -42 0 -10 -6 -13 -17 -8 -94 36 -208 39 -208 5 0 -10 -9
-14 -24 -12 -34 3 -83 -33 -117 -87 -37 -59 -46 -167 -19 -237 29 -77 141
-154 226 -154 68 0 167 38 191 75 12 16 35 45 51 62 28 29 30 39 31 100 0 76
-33 165 -81 216 -15 15 -22 27 -16 27 16 0 70 -70 93 -121 12 -26 20 -66 20
-99 0 -55 12 -91 26 -77 14 13 -17 153 -47 215 -24 49 -45 75 -91 110 -33 26
-70 50 -82 53 -50 14 -73 16 -113 9z m50 -97 c-13 -2 -33 -2 -45 0 -13 2 -3 4
22 4 25 0 35 -2 23 -4z m-84 -7 c-2 -2 -15 -9 -29 -15 -24 -11 -24 -11 -6 3
16 13 49 24 35 12z m167 -22 c18 -14 18 -14 -6 -3 -31 14 -36 19 -24 19 6 0
19 -7 30 -16z m-272 -59 c-9 -14 -18 -25 -21 -25 -5 0 5 18 20 38 17 22 18 13
1 -13z m95 -48 c15 -3 20 -17 23 -58 4 -53 -6 -84 -23 -73 -5 3 -9 -6 -9 -20
0 -33 -15 -33 -45 0 -38 41 -32 125 12 169 16 16 18 17 21 3 2 -9 11 -18 21
-21z m-133 -29 c-6 -23 -12 -35 -14 -26 -3 14 14 68 21 68 2 0 -1 -19 -7 -42z
m411 -35 c-3 -10 -5 -4 -5 12 0 17 2 24 5 18 2 -7 2 -21 0 -30z m-408 -88 c0
-5 -4 -3 -9 5 -5 8 -9 22 -9 30 0 16 17 -16 18 -35z m332 35 c25 -14 24 -45
-3 -72 -20 -20 -22 -20 -35 -3 -16 23 -17 57 -1 73 15 15 15 15 39 2z m76 -22
c-3 -7 -5 -2 -5 12 0 14 2 19 5 13 2 -7 2 -19 0 -25z m-16 -41 c-10 -9 -11 -8
-5 6 3 10 9 15 12 12 3 -3 0 -11 -7 -18z m-372 -17 c11 -24 11 -24 -3 -6 -9
11 -16 24 -16 30 0 12 5 7 19 -24z m341 -23 c0 -2 -10 -12 -22 -23 l-23 -19
19 23 c18 21 26 27 26 19z m-270 -54 c0 -8 -38 17 -51 33 -9 11 -2 9 19 -6 17
-13 32 -25 32 -27z m89 -19 c10 -9 -55 -3 -69 6 -10 6 -2 7 25 3 22 -3 42 -7
44 -9z m64 -11 c-7 -2 -19 -2 -25 0 -7 3 -2 5 12 5 14 0 19 -2 13 -5z"/>
<path d="M2594 812 c-16 -15 -48 -52 -70 -82 -38 -54 -39 -56 -38 -140 1 -131
42 -207 142 -259 43 -23 34 -4 -11 22 -27 16 -58 47 -78 79 -30 47 -34 62 -38
135 -3 76 -1 86 27 135 17 30 43 65 57 78 23 22 51 61 43 60 -2 -1 -17 -13
-34 -28z"/>
<path d="M1910 823 c-14 -3 -29 -8 -33 -13 -5 -4 -8 -119 -8 -256 0 -225 1
-250 17 -261 27 -19 60 -16 89 10 27 23 27 23 32 210 5 142 3 194 -7 212 -7
13 -10 37 -8 54 4 25 1 31 -13 31 -10 0 -21 5 -24 10 -3 6 -9 9 -13 9 -4 -1
-18 -4 -32 -6z"/>
<path d="M3482 585 c-2 -111 -7 -173 -17 -203 -9 -24 -13 -47 -10 -52 3 -5 1
-19 -5 -30 -9 -17 -8 -20 9 -20 13 0 23 8 26 22 3 13 4 117 3 233 -3 202 -4
204 -6 50z"/>
<path d="M3180 718 c0 -6 7 -20 16 -30 16 -16 15 -23 -8 -93 -28 -85 -23 -113
24 -126 21 -5 31 -2 49 17 l22 23 -24 58 c-14 36 -23 75 -22 103 1 25 -3 48
-10 52 -18 12 -47 9 -47 -4z"/>
<path d="M2367 594 c-14 -14 -6 -24 19 -24 16 0 24 5 22 13 -5 14 -31 21 -41
11z"/>
<path d="M2170 541 c-23 -6 -25 -12 -28 -64 l-3 -58 28 7 c15 3 36 14 47 24
16 16 17 22 6 54 -14 42 -17 45 -50 37z"/>
<path d="M2422 428 c-20 -20 -14 -33 35 -92 33 -39 54 -56 71 -56 22 0 20 4
-24 53 -26 28 -52 64 -59 79 -9 22 -14 25 -23 16z"/>
<path d="M1883 232 c-3 -7 -3 -15 0 -18 3 -3 335 -5 737 -5 429 0 740 -4 750
-9 18 -10 87 4 105 21 24 23 -33 29 -285 29 -206 0 -276 -4 -314 -15 -59 -18
-154 -19 -193 -3 -42 18 -794 18 -800 0z"/>
</g>
</svg>
